<?xml version="1.0" encoding="UTF-8" ?><svg height="250" width="250" xmlns="http://www.w3.org/2000/svg"><path d="M0 0L0 250L250 250L250 0L219 0C214.634 50.0464 211.022 100.094 206.195 150C204.976 162.611 203.703 175.339 202.305 188C201.862 192.018 203.104 198.106 200.155 201.342C197.837 203.888 193.155 204.267 190 205.144C180.701 207.73 171.407 210.714 162 212.883C143.703 217.104 126.316 224.882 107 222.793C81.3685 220.022 57.808 205.403 32 203C31.6088 135.054 15.0012 67.8503 15 0L0 0Z" style="fill:#fefefe; stroke:none;"/><path d="M15 0C15.26 19.0284 18.4526 37.39 20.8266 56.0594C27.0085 104.673 31.33 153.969 32 203C57.7384 206.727 83.1365 222.205 109 222.973C141.209 223.928 169.613 207.297 201 203C201 185.34 204.38 169.197 205.911 152C210.385 101.731 217 50.5092 217 0L15 0Z" style="fill:#efbc00; stroke:none;"/><path d="M217 0L213 64L214 64L217 22L217 0Z" style="fill:#ddba2a; stroke:none;"/><path d="M218 0L218 5L219 5L218 0Z" style="fill:#e0d49a; stroke:none;"/><path d="M15 7L15 13L16 13L15 7Z" style="fill:#dac98e; stroke:none;"/><path d="M117 18L117 208L185 192L188.913 158.941L201 18L117 18Z" style="fill:#fedc00; stroke:none;"/><path d="M216 26L216 33L217 33L216 26Z" style="fill:#e2d19a; stroke:none;"/><path d="M18 39L30 182L31 182L23.1964 86L18 39Z" style="fill:#e9bb28; stroke:none;"/><path d="M89 43L89 44L108 44L89 43Z" style="fill:#dab840; stroke:none;"/><path d="M125 43L125 44L191 44L169 43L125 43Z" style="fill:#e2c93c; stroke:none;"/><path d="M87 44L87 147L88 147L88 76L87 44Z" style="fill:#e7c327; stroke:none;"/><path d="M88 44L88 147L84 146L89 148L89 77L88 44Z" style="fill:#cdc5a4; stroke:none;"/><path d="M89 44L89 148L48 138L49 162L79 168L79 171L108 176L108 44L89 44Z" style="fill:#fefefe; stroke:none;"/><path d="M108 44L108 176L109 176L109 85C109 72.9225 112.228 55.3131 108 44Z" style="fill:#e3bc31; stroke:none;"/><path d="M124 44L124 108C124 112.771 121.65 126.597 125.717 129.85C128.699 132.234 133.765 130.186 137 129.544C146.35 127.687 155.976 127.294 165 124L165 143L166 143L166 123L125 129L125 71L124 44Z" style="fill:#efdb54; stroke:none;"/><path d="M125 44L125 129L166 123C166 127.962 167.783 137.254 164.85 141.482C161.239 146.689 141.326 150.022 134.973 151.723C132.298 152.439 128.009 152.336 126.15 154.707C122.792 158.987 125 170.742 125 176L155 171L155 168L180 163L186 97L160 99L160 102L144 103L144 66L189 66L191 44L125 44Z" style="fill:#fefefe; stroke:none;"/><path d="M214 52L214 56L215 56L214 52Z" style="fill:#d6c486; stroke:none;"/><path d="M18 54L18 56L20 56L20 54L18 54Z" style="fill:#eed799; stroke:none;"/><path d="M189 58L189 66L190 66L189 58Z" style="fill:#dcd16a; stroke:none;"/><path d="M213 64L213 69L214 69L213 64Z" style="fill:#e2d18d; stroke:none;"/><path d="M144 66L144 103L149 103L149 102L145 102L144 66Z" style="fill:#d2cca2; stroke:none;"/><path d="M145 66L145 67L189 67C176.92 62.4854 157.91 66 145 66Z" style="fill:#d7c968; stroke:none;"/><path d="M145 67L145 102L156 102L156 99L186 97L186 96L155 98L155 101L147 101C147 93.6871 143.953 77.5491 148.15 71.4123C150.36 68.1793 155.635 69.0015 159 69C169.049 68.9956 178.97 68.0002 189 68C176.92 63.4854 157.91 67 145 67Z" style="fill:#f3db21; stroke:none;"/><path d="M21 75L21 82L22 82L21 75Z" style="fill:#d8c681; stroke:none;"/><path d="M212 79L212 83L213 83L212 79Z" style="fill:#d9cf96; stroke:none;"/><path d="M165 98L165 99L169 99L165 98Z" style="fill:#c6be73; stroke:none;"/><path d="M156 99L156 102L160 102L160 99L156 99Z" style="fill:#dac47b; stroke:none;"/><path d="M185 102L185 112L186 112L185 102Z" style="fill:#e2d855; stroke:none;"/><path d="M23 103L23 108L25 108L25 103L23 103Z" style="fill:#eadb9d; stroke:none;"/><path d="M210 105L209 109L210 109L210 105Z" style="fill:#e5ce82; stroke:none;"/><path d="M184 113L184 122L185 122L184 113Z" style="fill:#d0bf68; stroke:none;"/><path d="M25 115L25 121L26 121L25 115Z" style="fill:#dcce91; stroke:none;"/><path d="M139 127L139 128L143 128L139 127Z" style="fill:#cfc894; stroke:none;"/><path d="M182 133L182 137L184 137L184 133L182 133Z" style="fill:#ddcd7c; stroke:none;"/><path d="M47 137L47 162L48 162L48 138L57 139L47 137Z" style="fill:#dbbb45; stroke:none;"/><path d="M58 139L63 141L63 140L58 139Z" style="fill:#c4b481; stroke:none;"/><path d="M63 141L63 142L84 146L63 141Z" style="fill:#e6c542; stroke:none;"/><path d="M206 143L206 148L207 148L206 143Z" style="fill:#e3d9ab; stroke:none;"/><path d="M181 144L181 161L182 161L181 144Z" style="fill:#eed64e; stroke:none;"/><path d="M146 147L146 148L150 146L146 147Z" style="fill:#e0d284; stroke:none;"/><path d="M134 151L134 152L145 149L134 151Z" style="fill:#d9cb71; stroke:none;"/><path d="M28 154L28 162L29 162L28 154Z" style="fill:#efddab; stroke:none;"/><path d="M124 155L124 176L125 176L124 155Z" style="fill:#efda4d; stroke:none;"/><path d="M180 156L180 162L181 162L180 156Z" style="fill:#d8d3b6; stroke:none;"/><path d="M205 156L204 159L205 156Z" style="fill:#ebc86c; stroke:none;"/><path d="M48 157L48 162L49 162L48 157Z" style="fill:#c7c09b; stroke:none;"/><path d="M203 159L201 196L202 196L203 159Z" style="fill:#e0bc26; stroke:none;"/><path d="M48 162L48 163L75 168C67.9646 163.483 56.2513 162.433 48 162Z" style="fill:#e7ba29; stroke:none;"/><path d="M29 166L29 171L30 171L29 166Z" style="fill:#dac887; stroke:none;"/><path d="M159 167L159 168L163 168L159 167Z" style="fill:#e2d366; stroke:none;"/><path d="M155 168C150.511 174.191 132.414 175.784 125 176L125 177C134.08 176.981 152.55 175.864 158 168L155 168Z" style="fill:#f4dc32; stroke:none;"/><path d="M202 182L202 187L203 187L202 182Z" style="fill:#e0d095; stroke:none;"/><path d="M201 196L201 201L202 201L201 196Z" style="fill:#dec876; stroke:none;"/><path d="M81 215L81 217L83 217L83 215L81 215Z" style="fill:#dfd19c; stroke:none;"/><path d="M150 215L150 217L152 217L152 215L150 215Z" style="fill:#e4d5af; stroke:none;"/><path d="M90.3333 218.667l0.3334 0.6660l-0.3334 -0.6660z" style="fill:#dbd09d; stroke:none;"/></svg>