<?xml version="1.0" encoding="UTF-8" ?><svg height="250" width="260" xmlns="http://www.w3.org/2000/svg"><path d="M0 0L0 250L260 250L260 0L0 0Z" style="fill:#fefefe; stroke:none;"/><path d="M52 9L52 10L55 10L52 9Z" style="fill:#c7a7e7; stroke:none;"/><path d="M55 9L55 10L206 10C193.421 5.2991 173.444 9 160 9L55 9Z" style="fill:#7e3bc0; stroke:none;"/><path d="M43 15C56.4378 8.642 72.4169 11 87 11L171 11L172 16L168 22L164 23L165 25L156 26L157 31C146.99 33.5212 145.936 45.5841 147 55C133.209 52.4961 118.965 53 105 53C100.928 53 93.1259 51.5236 89.9798 54.7173C84.0705 60.7161 87.3686 76.5907 87.8853 84C89.6986 110.003 83.3808 138.559 88 164L87 164L85 112L84 112L81 152C77.4644 146.45 82.3472 138.906 74 138L65 159C55.666 144.37 52.6734 160.958 52 170L44 170L44 178C31.8668 177.447 34.1637 159.501 32 150L31 150C33.0866 165.967 27.9598 191.878 41.3162 203.247C51.1826 211.645 69.8975 208 82 208L180 208C192.637 208 209.563 211.289 219.776 202.287C228.1 194.949 227 185.063 227 175C227 155.317 230.722 118.326 256 115L256 103C231.265 99.9413 227 62.5193 227 43C227 34.6539 227.228 23.9538 221.411 17.227C212.329 6.72394 195.348 10 183 10L84 10C73.9085 10 49.1261 5.48758 43 15Z" style="fill:#7312f7; stroke:none;"/><path d="M4 103L4 115C22.0794 119.515 29.2394 137.335 32.5913 154C34.4701 163.341 32.109 177.757 44 178L44 170L52 170C53.3408 160.244 54.6818 146.916 65 159L74 138C82.2256 139.653 76.3656 146.975 81 152L84 112L85 112L87 164L88 164C84.6113 138.041 89.2019 110.313 87.9406 84C87.5755 76.3838 83.9839 60.6053 90.6483 54.7173C94.1785 51.5984 101.646 53 106 53C119.772 53 133.331 53.2154 147 55C147.08 45.411 146.959 34.2944 157 31L156 26L165 25L164 23L168 22L172 16L171 11L77 11C65.5986 11 48.5471 8.04282 39.3162 16.5427C30.5338 24.6296 32.0038 37.2759 32 48C31.9927 68.7827 27.463 97.14 4 103Z" style="fill:#8913ff; stroke:none;"/><path d="M225 23L227 57L228 57C228 46.4581 230.414 32.4685 225 23Z" style="fill:#8640d3; stroke:none;"/><path d="M91 55L91 56L139 56C125.908 51.1073 105.002 55 91 55Z" style="fill:#be8af9; stroke:none;"/><path d="M90 56L90 162L91 162L91 89L90 56Z" style="fill:#6127af; stroke:none;"/><path d="M91 56L91 162L92 162L92 89L91 56Z" style="fill:#eac8ff; stroke:none;"/><path d="M92 56L92 162C112.195 162 143.533 167.947 160.999 156.037C182.301 141.511 173.643 109.607 149 106C168.59 98.2362 175.647 70.3302 154 59.42C137.319 51.0126 110.286 56 92 56Z" style="fill:#faf2fd; stroke:none;"/><path d="M228 58L228 64L229 64L228 58Z" style="fill:#8354bb; stroke:none;"/><path d="M30.3333 65.6667l0.3334 0.6666l-0.3334 -0.6666z" style="fill:#c095e8; stroke:none;"/><path d="M109 69L109 70L133 70L109 69Z" style="fill:#cca5f6; stroke:none;"/><path d="M109 70C109 77.1845 105.83 94.7807 111 100C109.715 94.3026 107.173 77.3119 111.717 72.8447C114.213 70.3912 118.821 71.0042 122 71.0001C134.361 70.9841 139.067 73.1591 149 80C143.547 65.4296 121.455 70 109 70Z" style="fill:#6324b1; stroke:none;"/><path d="M150 80C139.321 73.5319 135.052 70.9953 122 71C118.897 71.0011 113.395 70.1039 111.15 72.8447C108.75 75.7744 110 82.466 110 86C110 89.372 108.881 95.4659 111.15 98.2827C113.682 101.427 121.444 100 125 100C139.918 99.9998 149.966 96.6231 150 80Z" style="fill:#7f11fc; stroke:none;"/><path d="M167 77L167 86L168 86L167 77Z" style="fill:#d6aaff; stroke:none;"/><path d="M109 100L109 101L132 101L109 100Z" style="fill:#995cdb; stroke:none;"/><path d="M251.667 102.333l0.6660 0.3340l-0.6660 -0.3340z" style="fill:#a585d9; stroke:none;"/><path d="M109 114L109 148L137 148L137 147C130.724 147 117.72 149.48 112.412 145.85C107.37 142.402 108.564 119.586 113.518 116.15C118.423 112.747 130.195 115 136 115L109 114Z" style="fill:#5e25a8; stroke:none;"/><path d="M136 114L136 115L140 115L136 114Z" style="fill:#cca4ff; stroke:none;"/><path d="M112.834 116.15C108.68 119.463 107.572 142.512 111.717 145.85C114.19 147.841 119.055 147 122 147C131.14 147.001 142.144 149.557 149.844 143.297C158.106 136.581 156.03 122.059 146.969 117.238C140.459 113.774 132.121 115 125 115C121.63 115 115.658 113.897 112.834 116.15Z" style="fill:#7d11fb; stroke:none;"/><path d="M251.667 115.333l0.6660 0.3340l-0.6660 -0.3340z" style="fill:#a98cdf; stroke:none;"/><path d="M170 118L173 138L174 138C174 130.88 174.986 123.696 170 118Z" style="fill:#5f28a7; stroke:none;"/><path d="M27 136L30 151L31 151L27 136Z" style="fill:#8340e5; stroke:none;"/><path d="M109 148L109 149L136 149L109 148Z" style="fill:#d9b3ff; stroke:none;"/><path d="M31 153L31 158L32 158L31 153Z" style="fill:#885abb; stroke:none;"/><path d="M227 153L227 188L228 188L229 153L227 153Z" style="fill:#7839d3; stroke:none;"/><path d="M32 161L32 188L33 188L32 161Z" style="fill:#8c41db; stroke:none;"/><path d="M91 162L91 163L140 163C126.655 158.013 105.275 162 91 162Z" style="fill:#b781f9; stroke:none;"/><path d="M55 208L55 209L205 209C192.421 204.299 172.444 208 159 208L55 208Z" style="fill:#804ec0; stroke:none;"/></svg>