<?xml version="1.0" encoding="UTF-8" ?><svg height="185" width="272" xmlns="http://www.w3.org/2000/svg"><path d="M0 0L0 155L1 155L4 106L18 106C20.2593 120.024 25.9281 139.693 33 152L43.8335 120L49.4937 107.15L61 106L65 169L55 169L52 119L51 119L36 169L28 169L13 120L12 120L10 152L8.85031 166.588L0 169L0 185L74 185L74 184L70 178C97.4792 177.927 75.883 136.93 71 122L81 122L91 159C103.126 149.07 91.4609 122.054 111 122C105.463 141.779 102.163 176.6 79 184L79 185L272 185C272 178.826 273.634 170.738 269 166L268 168L267 168L266 164L265 164L265 168L264 168L264 161L268 165C276.318 153.691 272 131.624 272 118L272 0L170 0L170 1C191.048 8.36052 211.043 15.7349 224.537 35C231.051 44.2998 232.882 56.9967 240.145 65.6583C247.593 74.5405 260.599 76.8911 268 87L252 90L252 92L269 106C260.115 101.298 251.024 97.1899 246 88L263 85C257.099 75.1457 243.629 75.8879 236.963 67.7303C230.847 60.2472 228.814 49.374 224.099 41C214.639 24.195 201.751 16.2202 184 11.2284C179.149 9.86421 171.69 2.46597 166.426 4.78793C161.074 7.1487 170.196 17.2946 171.646 20C174.799 25.8832 180.901 36.5814 181.756 43C183.103 53.1109 174.435 67.7095 186 75L191 59L192 59L204 82L191 68C190.702 77.5246 183.634 81.3625 179.061 70.9991C174.411 60.4612 180.641 52.7662 178.945 43C176.603 29.5083 157.062 13.0576 164 0L0 0Z" style="fill:#fefefe; stroke:none;"/><path d="M164.667 0.333328l0.6660 0.3333l-0.6660 -0.3333z" style="fill:#59b1bc; stroke:none;"/><path d="M191 68L204 82L192 59L191 59L187 75C173.762 67.411 183.113 53.7221 182.231 43C181.732 36.9239 175.362 26.7766 172.648 21C171.375 18.2896 161.544 6.60396 167.254 4.98431C172.016 3.63388 177.561 9.53009 182 10.6288C200.734 15.2663 215.279 25.4515 224.649 43C228.889 50.9404 230.942 61.7479 236.963 68.5418C243.579 76.0075 255.955 76.8807 263 85L246 88C249.522 97.4669 260.036 102.591 269 106L252 89L267 87C263.014 74.6457 248.468 74.1451 240.835 65.6583C234.697 58.8348 232.277 48.0915 228.166 40C221.931 27.7288 209.721 15.862 197 10.4039C189.408 7.14655 178.972 3.09744 171 1.20743C167.944 0.482986 164.059 0.306213 162.161 3.35623C158.236 9.66412 167.607 17.7794 169.992 23C172.625 28.7646 177.818 37.884 178.546 44C179.591 52.7775 175.53 60.8979 178.347 69.9999C182.095 82.1121 190.072 78.5376 191 68Z" style="fill:#08728a; stroke:none;"/><path d="M168.667 0.333328l0.6660 0.3333l-0.6660 -0.3333z" style="fill:#6aafc2; stroke:none;"/><path d="M184 11L184 12L189 12L184 11Z" style="fill:#77afb5; stroke:none;"/><path d="M183 19L187 25C188.163 21.2935 186.605 19.7623 183 19Z" style="fill:#1b687e; stroke:none;"/><path d="M188.333 22.6667l0.3340 0.6666l-0.3340 -0.6666z" style="fill:#a9c1cc; stroke:none;"/><path d="M177.333 50.6667l0.3340 0.6666l-0.3340 -0.6666z" style="fill:#8eb7c1; stroke:none;"/><path d="M179 54L179 61L180 61L179 54Z" style="fill:#b1d3dc; stroke:none;"/><path d="M176 55L176 62L177 62L176 55Z" style="fill:#86b5c2; stroke:none;"/><path d="M187.333 66.6667l0.3340 0.6666l-0.3340 -0.6666z" style="fill:#73a1ab; stroke:none;"/><path d="M186 72L186 75L187 75L186 72Z" style="fill:#96c4d1; stroke:none;"/><path d="M190 72L190 75L191 75L190 72Z" style="fill:#76a2ad; stroke:none;"/><path d="M267.333 85.6667l0.3340 0.6666l-0.3340 -0.6666z" style="fill:#7697a8; stroke:none;"/><path d="M252.667 89.3333l0.6660 0.3334l-0.6660 -0.3334z" style="fill:#89bac5; stroke:none;"/><path d="M118 164C125.761 167.947 134.26 170.673 143 168.163C153.145 165.249 160.385 152.893 154.155 143.028C149.143 135.091 127.987 131.106 129.136 120.003C130.64 105.474 148.853 118.98 153 109C148.405 107.429 143.901 105.467 139 105.122C125.856 104.194 113.201 116.652 120.648 129.882C124.39 136.529 133.027 139.023 138.989 143.143C142.545 145.6 146.349 149.229 145.278 153.989C141.784 169.508 122.258 153.801 118 164Z" style="fill:#f29011; stroke:none;"/><path d="M212 170L202 165C210.951 151.433 216.233 130.025 206.795 115.003C196.993 99.4013 172.118 102.909 164.992 119C159.337 131.768 158.831 157.408 172.03 165.939C179.138 170.532 186.463 167.383 194 169.195C198.461 170.268 202.275 174.952 206.926 175.014C210.018 175.056 211.056 172.403 212 170Z" style="fill:#f29315; stroke:none;"/><path d="M4 106L4 111L5 111L4 106Z" style="fill:#86b9bd; stroke:none;"/><path d="M5 106L0 168L9 168L11 119C18.0886 127.728 19.8262 143.378 23.3338 154C25.9997 162.073 26.4268 167.918 36 168L51 119L52 119L55 168L65 168L61 106L48.7845 107.15L43.5027 120L33 152L18 106L5 106Z" style="fill:#00758f; stroke:none;"/><path d="M221 106L221 168L250 168L250 161L230 161L230 106L221 106Z" style="fill:#f3900f; stroke:none;"/><path d="M230 106L230 161L231 161C231 145.089 235.554 120.861 230 106Z" style="fill:#ecc598; stroke:none;"/><path d="M269 106L270 107L269 106Z" style="fill:#345f68; stroke:none;"/><path d="M270 107L271 108L270 107Z" style="fill:#3f6572; stroke:none;"/><path d="M61 112L61 120L62 120L61 112Z" style="fill:#aed0d9; stroke:none;"/><path d="M182 112L182 113L191 113L182 112Z" style="fill:#f3ddbd; stroke:none;"/><path d="M180.119 113.953C164.24 121.007 169.359 171.125 191.937 160.83C208.794 153.143 204.271 103.224 180.119 113.953Z" style="fill:#fefefe; stroke:none;"/><path d="M3 117L3 120L4 120L3 117Z" style="fill:#92b6c0; stroke:none;"/><path d="M11 119L11 124L12 124L13 119L11 119Z" style="fill:#b5dce7; stroke:none;"/><path d="M118 120L118 124L119 124L118 120Z" style="fill:#fccd9c; stroke:none;"/><path d="M209.333 120.667l0.3340 0.6660l-0.3340 -0.6660z" style="fill:#ecbe82; stroke:none;"/><path d="M71 122L71 123L81 123L71 122Z" style="fill:#8bb9c6; stroke:none;"/><path d="M101 122L101 123L111 124L101 122Z" style="fill:#7fb9c2; stroke:none;"/><path d="M163.333 122.667l0.3340 0.6660l-0.3340 -0.6660z" style="fill:#e5bb8d; stroke:none;"/><path d="M71 123C75.725 137.447 97.2391 177.784 70 178C71.4792 191.712 87.8326 180.965 92.3407 174.997C102.594 161.42 109.081 139.903 110 123L101 123L92 161C87.9706 147.683 87.8907 123.013 71 123Z" style="fill:#00778f; stroke:none;"/><path d="M100 124L100 129L101 129L100 124Z" style="fill:#8ababe; stroke:none;"/><path d="M82.3333 127.667l0.3334 0.6660l-0.3334 -0.6660z" style="fill:#8cb5c2; stroke:none;"/><path d="M211 128L211 142L212 142L211 128Z" style="fill:#f3cc9d; stroke:none;"/><path d="M10 129L10 134L11 134L10 129Z" style="fill:#8fb7c1; stroke:none;"/><path d="M53 129L53 136L54 136L53 129Z" style="fill:#82afb7; stroke:none;"/><path d="M171 129L171 142L172 142L171 129Z" style="fill:#eeb66f; stroke:none;"/><path d="M161 130L161 144L162 144L161 130Z" style="fill:#ebc79d; stroke:none;"/><path d="M201 132L201 142L202 142L201 132Z" style="fill:#e3af6d; stroke:none;"/><path d="M63 135L63 142L64 142L63 135Z" style="fill:#73aab6; stroke:none;"/><path d="M1 136L1 145L2 145L1 136Z" style="fill:#c5dbe1; stroke:none;"/><path d="M98 136L98 139L99 139L98 136Z" style="fill:#a8cad5; stroke:none;"/><path d="M87.3333 143.667l0.3334 0.6660l-0.3334 -0.6660z" style="fill:#96c7cd; stroke:none;"/><path d="M9 148L9 168L10 168L9 148Z" style="fill:#a0c5d0; stroke:none;"/><path d="M79.3333 148.667l0.3334 0.6660l-0.3334 -0.6660z" style="fill:#a9ccd4; stroke:none;"/><path d="M156 148L156 154L157 154L156 148Z" style="fill:#e1a763; stroke:none;"/><path d="M54 149L54 154L55 154L54 149Z" style="fill:#9cc3d0; stroke:none;"/><path d="M95.3333 149.667l0.3334 0.6660l-0.3334 -0.6660z" style="fill:#8eb7c4; stroke:none;"/><path d="M89.3333 150.667l0.3334 0.6660l-0.3334 -0.6660z" style="fill:#72abb4; stroke:none;"/><path d="M64 152L64 159L65 159L64 152Z" style="fill:#83acb8; stroke:none;"/><path d="M0 155L0 164L1 164L0 155Z" style="fill:#9fd0dc; stroke:none;"/><path d="M91 159L91 161L93 159L91 159Z" style="fill:#95c6d1; stroke:none;"/><path d="M250 161L250 168L251 168L250 161Z" style="fill:#f5d0a6; stroke:none;"/><path d="M256 161L256 162L258 168L259 168L261 162L256 161Z" style="fill:#c98f50; stroke:none;"/><path d="M264 161L264 168L265 168L265 164L266 164L268 168L270 164L271 164L271 168L272 168L272 161L268 165L264 161Z" style="fill:#d7a450; stroke:none;"/><path d="M84 164L84 167L85 167L84 164Z" style="fill:#73acb3; stroke:none;"/><path d="M270 164L270 168L271 168L270 164Z" style="fill:#fee0b3; stroke:none;"/><path d="M0 168L0 169L9 169L0 168Z" style="fill:#c0d8dc; stroke:none;"/><path d="M28 168L28 169L36 169L28 168Z" style="fill:#bdd5de; stroke:none;"/><path d="M55 168L55 169L65 169L55 168Z" style="fill:#bfd6dd; stroke:none;"/><path d="M221 168L221 169L250 169L221 168Z" style="fill:#f5debf; stroke:none;"/></svg>