<?xml version="1.0" encoding="UTF-8" ?><svg height="250" width="250" xmlns="http://www.w3.org/2000/svg"><path d="M0 0L0 250L250 250L250 0L211 0C204.988 46.0067 200.338 93.6399 198.059 140C197.353 154.368 195.514 168.674 194.196 183C193.699 188.407 195.103 195.882 191.877 200.648C187.512 207.098 169.242 208.637 162 210.712C146.994 215.011 128.057 223.93 112.432 224.012C98.2986 224.086 81.602 215.85 68 212.158C59.9858 209.983 37.8011 207.818 33.1463 200.648C27.3676 191.746 29.8941 171.501 28.6957 161C24.4113 123.458 22.2673 85.6254 18.8036 48C17.7329 36.369 16.9681 24.5812 15.5676 13C15.175 9.75307 15.9408 3.43146 13.1553 1.14969C10.2217-1.25346 3.56358 0 0 0Z" style="fill:#fefefe; stroke:none;"/><path d="M14 0C22.8434 48.7067 22.2591 99.7879 27.695 149C29.0099 160.905 30.0372 173.044 30.8854 185C31.2185 189.695 30.2303 197.39 33.1463 201.401C37.696 207.658 57.6459 209.693 65 211.63C79.7621 215.518 96.7045 223.734 112 224.175C126.322 224.587 144.254 216.054 158 212.142C165.654 209.963 187.174 207.919 191.85 201.401C194.548 197.641 193.763 189.477 194.111 185C195.043 173.013 196.095 160.963 197.196 149C201.719 99.8722 209.999 49.3312 210 0L14 0Z" style="fill:#fe5722; stroke:none;"/><path d="M210 0L210 4L211 4L210 0Z" style="fill:#f5c6b8; stroke:none;"/><path d="M16 22L16 26L17 26L16 22Z" style="fill:#fcbaa3; stroke:none;"/><path d="M208 22L208 26L209 26L208 22Z" style="fill:#f0bcaa; stroke:none;"/><path d="M50 48L51 48L51 41L174 41C165.225 37.7206 152.34 40 143 40L77 40C68.1574 40 48.8177 35.4675 50 48Z" style="fill:#da572b; stroke:none;"/><path d="M51 41L51 42L174 42L136 41L51 41Z" style="fill:#fee9df; stroke:none;"/><path d="M51 42L57 116L143 116L140 149L113 155.173L85 149L84 128L58 128L60.6957 157L62.9533 167.345L83 174.161L112 181.675L140 174.712L161.965 167.343L165.115 146L170 92L80 92L78 66L172 66L174 42L51 42Z" style="fill:#fefefe; stroke:none;"/><path d="M19 56L19 60L20 60L19 56Z" style="fill:#f1c2b5; stroke:none;"/><path d="M205 56L205 63L206 63L205 56Z" style="fill:#fec2af; stroke:none;"/><path d="M52 62L52 65L53 65L52 62Z" style="fill:#ebb5a3; stroke:none;"/><path d="M172 62L172 66L173 66L172 62Z" style="fill:#f48d6d; stroke:none;"/><path d="M78 66L78 67L172 67L142 66L78 66Z" style="fill:#f69a81; stroke:none;"/><path d="M20 67L20 72L21 72L20 67Z" style="fill:#fcc2af; stroke:none;"/><path d="M204 67L204 72L205 72L204 67Z" style="fill:#f1c4b5; stroke:none;"/><path d="M53 70L53 75L54 75L53 70Z" style="fill:#fed0be; stroke:none;"/><path d="M78 70L78 74L79 74L78 70Z" style="fill:#fabaa5; stroke:none;"/><path d="M80 91L80 92L170 92L141 91L80 91Z" style="fill:#fab79e; stroke:none;"/><path d="M169 95L169 100L170 100L169 95Z" style="fill:#e1866f; stroke:none;"/><path d="M201 101L201 105L202 105L201 101Z" style="fill:#fec3b0; stroke:none;"/><path d="M56 107L56 110L57 110L56 107Z" style="fill:#f3b5a7; stroke:none;"/><path d="M24 113L24 117L25 117L24 113Z" style="fill:#fec3ae; stroke:none;"/><path d="M57 116L57 117L142 117L142 122L143 122L143 116L57 116Z" style="fill:#feded2; stroke:none;"/><path d="M140 138L140 142L141 142L140 138Z" style="fill:#f9c4b5; stroke:none;"/><path d="M197 146L197 150L198 150L197 146Z" style="fill:#febaa1; stroke:none;"/><path d="M27 147L27 151L28 151L27 147Z" style="fill:#f8c8b7; stroke:none;"/><path d="M193 192L193 196L194 196L193 192Z" style="fill:#fec5b0; stroke:none;"/></svg>