<?xml version="1.0" encoding="UTF-8" ?><svg height="250" width="250" xmlns="http://www.w3.org/2000/svg"><path d="M0 0L0 250L250 250L250 0L0 0Z" style="fill:#fefefe; stroke:none;"/><path d="M102 11L102 12L110 12L102 11Z" style="fill:#3c3c3c; stroke:none;"/><path d="M39 173C56.5375 168.4 68.747 196.205 76 209C101.921 201.353 61.3072 177.194 53 169L56 170C56.5604 150.325 66.8138 129.716 74.3699 112C78.1908 103.042 82.7318 97.0185 83.2758 86.9967C83.8125 77.1109 76.4181 56.305 84.6211 48.4268C93.1568 40.2293 96.9502 57.5912 96 63L108 63C106.113 48.4795 120.746 36.155 128.03 54.0008C132.028 63.7962 126.208 75.6709 129.098 86C135.056 107.294 150.626 125.254 154.372 147C156.445 159.035 151.466 173.523 155.989 184.969C161.904 199.937 180.53 185.958 184 177L177 180C177.767 172.977 174.799 170.969 168 170C172.904 168.933 181.831 174.945 185.155 172.753C190.542 169.199 186.199 151.968 185.14 147C183.1 137.43 180.348 127.264 174.855 119C165.691 105.213 153.681 95.2636 148.369 78.9406C142.473 60.8265 150.353 39.7451 136.425 24.1845C124.915 11.3245 97.7967 5.46196 85.3817 20.1259C65.6702 43.4081 88.0774 76.4472 71.4555 101C61.5869 115.577 54.7394 127.931 47.5404 144C42.6952 154.815 37.9362 160.788 39 173Z" style="fill:#010101; stroke:none;"/><path d="M120.667 14.3333l0.6660 0.3334l-0.6660 -0.3334z" style="fill:#4b4b4b; stroke:none;"/><path d="M128 18L128 19L133 21L133 20L128 18Z" style="fill:#3d3d3d; stroke:none;"/><path d="M121 20L119 32L124 32L124 31L121 31L121 22L128 24C127.24 20.4554 124.284 20.6209 121 20Z" style="fill:#2a2a2a; stroke:none;"/><path d="M121 22L121 31C128.129 29.0433 129.113 22.772 121 22Z" style="fill:#6b6b6b; stroke:none;"/><path d="M82 23L83 24L82 23Z" style="fill:#989898; stroke:none;"/><path d="M82 24L79 31L80 31L82 24Z" style="fill:#2c2c2c; stroke:none;"/><path d="M128 24L124 30L124 31L132 30L128 24Z" style="fill:#2d2d2d; stroke:none;"/><path d="M137 25L138 26L137 25Z" style="fill:#8e8e8e; stroke:none;"/><path d="M139 28L140 29L139 28Z" style="fill:#909090; stroke:none;"/><path d="M78.3333 31.6667l0.3334 0.6666l-0.3334 -0.6666z" style="fill:#787878; stroke:none;"/><path d="M77 35L77 39L78 39L77 35Z" style="fill:#545454; stroke:none;"/><path d="M143.333 36.6667l0.3340 0.6666l-0.3340 -0.6666z" style="fill:#5c5c5c; stroke:none;"/><path d="M76 40L76 53L77 53L76 40Z" style="fill:#9e9e9e; stroke:none;"/><path d="M122 40L129 47L122 40Z" style="fill:#555555; stroke:none;"/><path d="M90 42L97 47L90 42Z" style="fill:#3d3d3d; stroke:none;"/><path d="M110 51L121 45C115.692 43.2394 112.195 46.3407 110 51Z" style="fill:#828282; stroke:none;"/><path d="M145 44L145 51L146 51L145 44Z" style="fill:#878787; stroke:none;"/><path d="M119 45L112 49L112 50L125 51C124.215 47.1613 122.779 45.926 119 45Z" style="fill:#c7c6c2; stroke:none;"/><path d="M81 55L87 47L92 48C85.9648 43.9337 82.5084 49.448 81 55Z" style="fill:#807e81; stroke:none;"/><path d="M108 52L109 52L113 46L108 52Z" style="fill:#5a5a58; stroke:none;"/><path d="M87 47L86 52L90 47L87 47Z" style="fill:#cbd0cc; stroke:none;"/><path d="M89 51L96 53C94.4039 49.2895 91.9512 47.4896 89 51Z" style="fill:#a6a4a7; stroke:none;"/><path d="M125 48L128 54L125 48Z" style="fill:#8e8c8d; stroke:none;"/><path d="M113 65C111.716 56.1196 122.819 49.0707 124.058 60.004C124.411 63.1144 122.17 66.251 121 69L127 70C127.967 67.3469 128.833 64.8518 128.953 62C129.05 59.677 128.947 57.146 127.821 55.054C120.036 40.585 99.797 58.078 113 65Z" style="fill:#fbfcff; stroke:none;"/><path d="M87 70L88 69C86.7481 65.968 84.2545 62.4368 84.7582 59.0189C86.206 49.1955 93.4759 59.2119 94 64C104.58 51.7371 77.7635 44.7473 82.4052 64.9259C83.0642 67.7907 84.4671 68.8764 87 70Z" style="fill:#fcfefb; stroke:none;"/><path d="M109 51L108 60L109 60L111 51L109 51Z" style="fill:#cbd0ca; stroke:none;"/><path d="M107 52L107 60L108 60L107 52Z" style="fill:#91918f; stroke:none;"/><path d="M87 53L87 54L90 54L87 53Z" style="fill:#bbbac0; stroke:none;"/><path d="M116.297 54.2238c-5.9950 3.1828 -3.2110 16.5588 4.4880 12.4276c5.9470 -3.1909 2.4780 -16.1267 -4.4880 -12.4276z" style="fill:#050600; stroke:none;"/><path d="M120 53L121 54L120 53Z" style="fill:#6d6c71; stroke:none;"/><path d="M88 68C101.921 58.3691 81.3666 48.6215 85.6422 63.927C86.0886 65.5247 87.086 66.6543 88 68Z" style="fill:#040207; stroke:none;"/><path d="M128.333 54.6667l0.3340 0.6666l-0.3340 -0.6666z" style="fill:#9d9b9e; stroke:none;"/><path d="M77 55L77 70L78 70L77 55Z" style="fill:#787878; stroke:none;"/><path d="M81 55L81 65L82 65L81 55Z" style="fill:#a2a2a4; stroke:none;"/><path d="M88 55L92 62L88 55Z" style="fill:#6d6c67; stroke:none;"/><path d="M118 55L118 56L122 58L118 55Z" style="fill:#969799; stroke:none;"/><path d="M92 56L93 57L92 56Z" style="fill:#7c7d7f; stroke:none;"/><path d="M113 56L114 57L113 56Z" style="fill:#6b6d68; stroke:none;"/><path d="M84 57L84 62L85 62L84 57Z" style="fill:#414342; stroke:none;"/><path d="M120 57L123 60L120 57Z" style="fill:#5e6254; stroke:none;"/><path d="M112 58L112 63L113 63L112 58Z" style="fill:#6a6569; stroke:none;"/><path d="M129 58L129 64L130 64L129 58Z" style="fill:#747474; stroke:none;"/><path d="M124.333 59.6667l0.3340 0.6666l-0.3340 -0.6666z" style="fill:#5f6354; stroke:none;"/><path d="M108 60L110 64L108 60Z" style="fill:#775b29; stroke:none;"/><path d="M146 60L146 69L147 69L146 60Z" style="fill:#8a8a8a; stroke:none;"/><path d="M124.333 61.6667l0.3340 0.6666l-0.3340 -0.6666z" style="fill:#999a9c; stroke:none;"/><path d="M98 62L98 63L107 63L98 62Z" style="fill:#665102; stroke:none;"/><path d="M93 63C88.1678 68.5915 81.7748 72.0511 81 80L83 80L97 63L93 63Z" style="fill:#a17f3f; stroke:none;"/><path d="M86 80L91 85L90 83L91 83C93.6914 83.6682 95.5907 83.9912 96 81C99.5383 79.7568 99.8031 77.5691 100 74L111 66L116 69L111 63C102.749 63.3631 97.1585 62.4138 91.6764 69.7649C89.0388 73.3019 89.9089 77.3157 86 80Z" style="fill:#e7b90e; stroke:none;"/><path d="M95 65C89.2067 69.2068 81.361 74.147 85 82L95 65Z" style="fill:#cb930a; stroke:none;"/><path d="M104 65L104 66L109 67L104 65Z" style="fill:#9e7100; stroke:none;"/><path d="M110 66L100 74L96 81C96 84.5075 92.7362 83.432 90 83C101.979 94.1766 116.061 74.8921 128 76L117 67L110 66Z" style="fill:#efd51e; stroke:none;"/><path d="M118 68L118 69L124 70L124 69L121 67L118 68Z" style="fill:#a38b27; stroke:none;"/><path d="M127 68L128 69L127 68Z" style="fill:#7c7774; stroke:none;"/><path d="M83 69L86 71L83 69Z" style="fill:#e4c8a1; stroke:none;"/><path d="M124 70L124 71C129.034 75.8271 127.843 80.5503 122 84C130.531 85.9599 131.642 72.5882 124 70Z" style="fill:#bf9d46; stroke:none;"/><path d="M147 73L147 76L148 76L147 73Z" style="fill:#929292; stroke:none;"/><path d="M78 75L78 88L79 88L78 75Z" style="fill:#2f2e32; stroke:none;"/><path d="M107 85L107 86L109 86L109 87L93 88C99.9988 98.4876 121.692 90.3461 126.684 80.7748C129.808 74.7838 122.124 75.6053 119.003 77.445C114.799 79.9236 111.728 83.5443 107 85Z" style="fill:#cf9118; stroke:none;"/><path d="M148 78L148 81L149 81L148 78Z" style="fill:#5b5b5b; stroke:none;"/><path d="M81 80L84 86C93.246 89.1203 100.907 101.143 111 91C101.962 91.7709 99.3679 92.2492 91 88L92 85L81 80Z" style="fill:#895f13; stroke:none;"/><path d="M137 81L140 91C149.844 89.9294 142.005 83.1238 137 81Z" style="fill:#828083; stroke:none;"/><path d="M149.333 81.6667l0.3340 0.6666l-0.3340 -0.6666z" style="fill:#4b4b4b; stroke:none;"/><path d="M91 87L91 88L109 87L109 86L107 86L107 85L112 84L91 87Z" style="fill:#af7800; stroke:none;"/><path d="M85 85L84 95C90.3274 97.4022 92.0402 107.316 99.9992 106.53C113.319 105.215 117.659 86.6433 133 95C131.837 92.1733 130.802 87.7743 128.353 85.7809C122.928 81.3653 109.567 94.1661 103 94.7031C95.4247 95.3224 90.5487 89.0271 85 85Z" style="fill:#bfbdbe; stroke:none;"/><path d="M83 87L82 95L83 87Z" style="fill:#2f2e34; stroke:none;"/><path d="M86 94C77.7627 99.5515 68.8878 115.535 82 120C66.0426 127.808 58.6356 143.335 57.9762 161C57.8193 165.202 56.4922 169.851 58.5243 173.8C63.9534 184.351 99.0693 197.076 78 209C87.0085 230.696 124.345 223.103 136.394 207.684C140.164 202.859 136.524 198.298 137.245 193.01C138.102 186.728 141.995 182.982 142 176L153 175C155.526 161.516 155.98 146.054 150.906 133C148.51 126.835 143.453 122.113 141.202 116C138.484 108.62 137.168 94.4339 127.882 91.8161C115.987 88.4631 105.662 111.85 95.2235 104.992C91.4037 102.482 88.6875 97.6122 86 94Z" style="fill:#fefefe; stroke:none;"/><path d="M154 91L157 96L154 91Z" style="fill:#373737; stroke:none;"/><path d="M157 96L161 103L157 96Z" style="fill:#2e2e2e; stroke:none;"/><path d="M81 98L82 99L81 98Z" style="fill:#757374; stroke:none;"/><path d="M71 101L72 102L71 101Z" style="fill:#909090; stroke:none;"/><path d="M68 105L69 106L68 105Z" style="fill:#7c7c7c; stroke:none;"/><path d="M77 105L78 106L77 105Z" style="fill:#8d8d8d; stroke:none;"/><path d="M67 106L68 107L67 106Z" style="fill:#949494; stroke:none;"/><path d="M63 111L64 112L63 111Z" style="fill:#858585; stroke:none;"/><path d="M62 112L63 113L62 112Z" style="fill:#919191; stroke:none;"/><path d="M73 113L71 125L82 120L73 113Z" style="fill:#b1b1b1; stroke:none;"/><path d="M59 116L60 117L59 116Z" style="fill:#898989; stroke:none;"/><path d="M117 118L128.695 122.765L147 132C140.087 115.085 132.432 118 117 118Z" style="fill:#c9c9c9; stroke:none;"/><path d="M56 121L55 124L56 121Z" style="fill:#464646; stroke:none;"/><path d="M151 121L163 131C160.426 125.946 156.453 122.594 151 121Z" style="fill:#4c4c4c; stroke:none;"/><path d="M54 125L53 131L54 131L54 125Z" style="fill:#444444; stroke:none;"/><path d="M63 126C58.3739 129.506 56.1102 135.41 55 141L56 141L63 126Z" style="fill:#555555; stroke:none;"/><path d="M147 126L148 127L147 126Z" style="fill:#909090; stroke:none;"/><path d="M67 131L68 132L67 131Z" style="fill:#7d7d7d; stroke:none;"/><path d="M163 131C167.957 146.135 166.918 153.53 164 169C160.339 169.602 158.377 170.474 157 174L158 174C169.639 164.257 175.768 143.398 163 131Z" style="fill:#505050; stroke:none;"/><path d="M157 138C165.637 137.067 158.618 130.365 157 138Z" style="fill:#393939; stroke:none;"/><path d="M181.333 133.667l0.3340 0.6660l-0.3340 -0.6660z" style="fill:#707070; stroke:none;"/><path d="M92 140L90 184C94.1572 180.925 92.7873 175.694 93.1147 171C93.8375 160.636 94 150.408 94 140L92 140Z" style="fill:#dddddd; stroke:none;"/><path d="M153.333 142.667l0.3340 0.6660l-0.3340 -0.6660z" style="fill:#a8a8a8; stroke:none;"/><path d="M184.333 142.667l0.3340 0.6660l-0.3340 -0.6660z" style="fill:#535353; stroke:none;"/><path d="M47 144L48 145L47 144Z" style="fill:#8b8b8b; stroke:none;"/><path d="M53 144C51.0418 149.25 45.7676 160.957 51 165L53 144Z" style="fill:#464646; stroke:none;"/><path d="M185 146L185 150L186 150L185 146Z" style="fill:#333333; stroke:none;"/><path d="M154 147L154 154L155 154L154 147Z" style="fill:#a2a2a2; stroke:none;"/><path d="M186.333 150.667l0.3340 0.6660l-0.3340 -0.6660z" style="fill:#6a6a6a; stroke:none;"/><path d="M58.3333 152.667l0.3334 0.6660l-0.3334 -0.6660z" style="fill:#a9a9a9; stroke:none;"/><path d="M57 155L57 158L58 158L57 155Z" style="fill:#474747; stroke:none;"/><path d="M51 156L51 166L52 166L51 156Z" style="fill:#999896; stroke:none;"/><path d="M57 158L57 167L58 167L57 158Z" style="fill:#c3c4c6; stroke:none;"/><path d="M187 158L187 163L188 163L187 158Z" style="fill:#7c7c7c; stroke:none;"/><path d="M39 159L40 160L39 159Z" style="fill:#7b7b7b; stroke:none;"/><path d="M52 163L52 169L53 169L52 163Z" style="fill:#656668; stroke:none;"/><path d="M56 163L56 170L53 169L57 173L56 163Z" style="fill:#3e4444; stroke:none;"/><path d="M154 166L154 170L155 170L154 166Z" style="fill:#9e9f97; stroke:none;"/><path d="M38 168L38 172L39 172L38 168Z" style="fill:#46434b; stroke:none;"/><path d="M168 169L168 170L178 171L168 169Z" style="fill:#323232; stroke:none;"/><path d="M154.333 170.667l0.3340 0.6660l-0.3340 -0.6660z" style="fill:#565157; stroke:none;"/><path d="M43 171L43 172L48 172L43 171Z" style="fill:#9e7f48; stroke:none;"/><path d="M57 171L57 174L58 174L57 171Z" style="fill:#a9a9a7; stroke:none;"/><path d="M177 171L180 176L183 175L177 171Z" style="fill:#656565; stroke:none;"/><path d="M18 216C25.2163 209.803 19.4831 197.008 20 189L21 189L22 191L39 187C38.2409 181.024 39.9908 177.083 43 172C37.3519 174.482 36.5578 181.189 31.4977 184.479C27.2833 187.219 19.2077 184.094 17.4164 190.157C15.2415 197.518 19.5267 207.619 18 216Z" style="fill:#d9a008; stroke:none;"/><path d="M41 175L49 174L51 181L60 184C56.5783 177.189 48.3407 168.159 41 175Z" style="fill:#e7bc3c; stroke:none;"/><path d="M153.333 172.667l0.3340 0.6660l-0.3340 -0.6660z" style="fill:#bdaeb3; stroke:none;"/><path d="M178 173L177 180L186 174L180 176L178 173Z" style="fill:#262f2a; stroke:none;"/><path d="M39 187L21 189L20 189L20.8117 209.986L14 224C22.2142 224 38.7291 227.355 47 230.5C53.5004 232.972 63.2109 239.816 70.6667 235.5C88.9682 224.904 73.8019 201.445 64 191C59.9348 186.668 58.5338 177.828 51 181L49 174C40.52 174.266 37.3494 178.599 39 187Z" style="fill:#f6bc10; stroke:none;"/><path d="M153 174C141.231 177.305 141.012 185.891 145 197L146 197L146.333 179.028L153 174Z" style="fill:#cfa83f; stroke:none;"/><path d="M142 176L142 186L143 186L144 176L142 176Z" style="fill:#fff4bb; stroke:none;"/><path d="M168 234L167 232C177.713 230.353 192.665 222.564 201.843 216.753C207.856 212.947 205.383 207.354 200 205L188 181C183.182 182.004 173.771 191.279 172 196L160 196C159.566 193 155.843 192.107 154.63 188.981C153.53 186.15 156.197 170.229 147.477 176.889C141.848 181.188 146.099 195.449 146.981 201C148.408 209.976 143 228.561 154.282 233.523C158.262 235.274 163.807 234.117 168 234Z" style="fill:#f7be0f; stroke:none;"/><path d="M154 176L155 179L156 179L156 176L154 176Z" style="fill:#8c8143; stroke:none;"/><path d="M184 177L179 189L188 181L184 177Z" style="fill:#dabb3c; stroke:none;"/><path d="M65 180L66 181L65 180Z" style="fill:#7d8381; stroke:none;"/><path d="M154 181C154.629 194.982 174.829 197.392 180 185C168.902 192.253 161.264 192.656 154 181Z" style="fill:#a27d2c; stroke:none;"/><path d="M188 181L190 193L191 193L188 181Z" style="fill:#e8d156; stroke:none;"/><path d="M21 184L21 185L32 185L21 184Z" style="fill:#c3b481; stroke:none;"/><path d="M60 184L66 193L60 184Z" style="fill:#af962f; stroke:none;"/><path d="M70 184L71 185L70 184Z" style="fill:#858c84; stroke:none;"/><path d="M79 236C83.8095 224.705 80.2107 219.476 79 208L76 209L75 206L74 206C75.2219 211.017 79.2891 214.552 79.207 219.997C79.1001 227.093 72.2109 235.669 64.9896 235.948C56.7248 236.268 50.2239 230.981 42.5676 228.751C34.0199 226.261 22.8431 225.382 14 224C17.3148 217.501 20.1921 210.495 19.5427 203C19.1487 198.453 15.1183 192.685 18.7182 188.521C21.7349 185.031 27.8923 186.001 32 186C29.9642 185.239 28.1832 185.037 25.9855 185.01C9.9628 184.812 17.2336 198.6 15.6314 209C14.882 213.865 9.97462 221.839 13.1532 226.48C15.9416 230.551 26.4572 231.484 31 232.136C47.9543 234.572 61.987 236.925 79 236Z" style="fill:#c08811; stroke:none;"/><path d="M141 186C134.771 191.958 138.496 198.472 138 206C143.022 201.488 143.297 192.147 141 186Z" style="fill:#c7c7c9; stroke:none;"/><path d="M142 186L141 201C144.283 197.685 143.549 190.144 142 186Z" style="fill:#dac493; stroke:none;"/><path d="M154 187L160 196L172 196L175 191C165.841 192.675 161.588 193.112 154 187Z" style="fill:#c08a0c; stroke:none;"/><path d="M75 188L76 189L75 188Z" style="fill:#938f90; stroke:none;"/><path d="M79 191L80 192L79 191Z" style="fill:#969c9c; stroke:none;"/><path d="M143 194L142 202C147.378 209.867 141.012 220.463 144.189 228.885C150.972 246.873 178.372 235.947 186 224L167 232L168 234C164.217 234.057 159.767 234.771 156.101 233.605C138.992 228.164 154.108 202.75 143 194Z" style="fill:#c7910a; stroke:none;"/><path d="M83 195L84 196L83 195Z" style="fill:#747273; stroke:none;"/><path d="M15 201L15 211L16 211L15 201Z" style="fill:#d9c28d; stroke:none;"/><path d="M142 202C124.519 219.445 107.612 224.659 84 219L86 235C103.829 229.964 121.736 233.044 140 234L142 202Z" style="fill:#010101; stroke:none;"/><path d="M143 202L139 224L138 235C146.343 242.612 150.656 244 162 244L162 243L151 243L143.238 229L143 202Z" style="fill:#694c14; stroke:none;"/><path d="M200 204L200 205L206 212L207 212C206.497 207.2 204.704 205.124 200 204Z" style="fill:#e3c969; stroke:none;"/><path d="M83 206L84 207L83 206Z" style="fill:#7a7974; stroke:none;"/><path d="M134 209L135 210L134 209Z" style="fill:#8a898f; stroke:none;"/><path d="M133 210L134 211L133 210Z" style="fill:#727375; stroke:none;"/><path d="M129 213L130 214L129 213Z" style="fill:#878588; stroke:none;"/><path d="M80 214C82.4221 223.189 81.5299 227.142 79 236L62 237.782L36 233L36 234C49.8518 239.371 65.4411 243.663 80 241L83 230C88.9937 228.716 83.3337 216.32 80 214Z" style="fill:#886112; stroke:none;"/><path d="M83 218L84 224L85 224L85 218L83 218Z" style="fill:#442b03; stroke:none;"/><path d="M192 221L192 222L199 219L192 221Z" style="fill:#cdab5e; stroke:none;"/><path d="M107.667 221.333l0.6660 0.3340l-0.6660 -0.3340z" style="fill:#969696; stroke:none;"/><path d="M109.667 221.333l0.6660 0.3340l-0.6660 -0.3340z" style="fill:#4f4f4f; stroke:none;"/><path d="M96 222L96 223L101 223L96 222Z" style="fill:#444444; stroke:none;"/><path d="M188.667 223.333l0.6660 0.3340l-0.6660 -0.3340z" style="fill:#d0bd90; stroke:none;"/><path d="M185 227L188 224L185 227Z" style="fill:#d0c09d; stroke:none;"/><path d="M86 227L83 230L80 240L87 236L88 233L86 227Z" style="fill:#574123; stroke:none;"/><path d="M143 227L151 243C159.404 242.999 167.972 242.669 173 235C157.9 236.984 152.712 240.869 143 227Z" style="fill:#8c5d15; stroke:none;"/><path d="M17 229L17 230L21 230L17 229Z" style="fill:#bda779; stroke:none;"/><path d="M29 232L29 233L36 234L29 232Z" style="fill:#b39355; stroke:none;"/><path d="M93 232L93 233L117 233L93 232Z" style="fill:#585858; stroke:none;"/><path d="M133.667 233.333l0.6660 0.3340l-0.6660 -0.3340z" style="fill:#999a9b; stroke:none;"/><path d="M47.6667 237.333l0.6666 0.3340l-0.6666 -0.3340z" style="fill:#b4aa90; stroke:none;"/><path d="M54 239L54 240L64 243L64 242L54 239Z" style="fill:#83755b; stroke:none;"/><path d="M64 242L64 243L79 242L64 242Z" style="fill:#625136; stroke:none;"/><path d="M162 242L162 243L167 242L162 242Z" style="fill:#947f62; stroke:none;"/><path d="M153 244L153 245L158 245L153 244Z" style="fill:#958c8c; stroke:none;"/></svg>