<?xml version="1.0" encoding="UTF-8" ?><svg height="250" width="251" xmlns="http://www.w3.org/2000/svg"><path d="M0 0L0 250L251 250L251 0L0 0Z" style="fill:#fefefe; stroke:none;"/><path d="M83 27L83 28C90.3761 35.3761 98.0152 45.914 107 51.2563C113.281 54.9912 119.879 52.1685 125.854 58.1461C131.858 64.1527 128.834 70.3678 132.15 77C135.515 83.7299 143.568 89.8539 149 94.9581C157.042 102.515 168.103 97.6866 175.27 108.011C186.2 123.757 162.798 141.615 149.146 128.733C142.2 122.179 146.386 115.981 143.027 109C139.356 101.372 128.765 92.9249 122 88C122 106.164 119.066 127.119 122.215 144.99C123.647 153.112 132.316 156.483 130.617 166C127.231 184.972 102.495 184.22 97.1811 167C93.8147 156.09 106.391 152.257 106.958 142.972C107.921 127.206 110.852 103.233 106.588 88.0594C105.072 82.6656 99.277 79.5421 97.452 74C96.1592 70.0738 97.9557 65.6594 96.076 62C91.4689 53.0309 80.1061 45.1061 73 38C52.0818 53.2274 34.3011 75.6989 16 94C9.33529 100.665-1.19072 108.242 1.84144 119C5.04698 130.373 18.9333 139.933 27 148L89 210C97.9147 218.915 109.306 234.205 123 224.362C133.318 216.946 142.027 205.973 151 197L203 145C210.59 137.41 227.005 126.3 225.667 114C224.476 103.04 210.226 93.2257 203 86L142 25C134.577 17.5768 125.391 4.1295 114 3.28987C101.925 2.39983 90.6141 19.3859 83 27Z" style="fill:#f05134; stroke:none;"/><path d="M112 52L112 53L116 53L112 52Z" style="fill:#e5b9a6; stroke:none;"/><path d="M96 68L96 72L97 72L96 68Z" style="fill:#e2a392; stroke:none;"/><path d="M107 86L107 148L108 148L108 106L107 86Z" style="fill:#fedbd6; stroke:none;"/><path d="M143 113L143 120L144 120L143 113Z" style="fill:#febfb4; stroke:none;"/><path d="M96 161L96 166L97 166L96 161Z" style="fill:#e49792; stroke:none;"/></svg>