<?xml version="1.0" encoding="UTF-8" ?><svg height="250" width="250" xmlns="http://www.w3.org/2000/svg"><path d="M0 0L0 250L250 250L250 0L215 0C214.854 25.2889 210.522 50.8352 208.196 76C206.012 99.6327 204.918 123.402 202.305 147C200.868 159.98 200.017 173.015 198.432 186C197.946 189.986 199.152 196.151 196.85 199.598C192.076 206.749 170.904 208.243 163 210.443C148.677 214.429 130.895 222.899 116 222.899C100.915 222.899 83.6113 214.279 69 210.626C61.4789 208.745 40.5304 206.311 36.1497 199.616C33.4147 195.436 34.113 185.917 33.9929 181C33.7195 169.805 31.9389 158.147 30.6951 147C28.0629 123.411 27.007 99.6258 24.8035 76C22.4602 50.8755 18.0515 25.2601 18 0L0 0Z" style="fill:#fefefe; stroke:none;"/><path d="M18 0L30.1964 140L36 202C55.468 205.108 74.932 212.173 94 217.171C101.042 219.017 108.628 223.27 116 223.27C130.854 223.27 149.72 214.628 164 210.432C172.71 207.873 188.48 207.12 195.293 200.84C198.547 197.841 197.926 191.033 198.432 187C200.091 173.773 201.312 160.307 202.056 147C204.799 97.9672 210.733 48.9149 215 0L18 0Z" style="fill:#264ee4; stroke:none;"/><path d="M18 4L18 10L19 10L18 4Z" style="fill:#8ca0e6; stroke:none;"/><path d="M214 4L214 9L215 9L214 4Z" style="fill:#8b9ae2; stroke:none;"/><path d="M213 14L213 22L214 22L213 14Z" style="fill:#7082e3; stroke:none;"/><path d="M19 15L19 21L20 21L19 15Z" style="fill:#8591da; stroke:none;"/><path d="M115 15L116 39L160 39C164.398 39 172.798 37.4198 176.528 40.1497C181.861 44.0518 176.743 63.2801 176.196 69C173.994 92.0018 172.685 115.02 170.186 138C169.401 145.22 170.89 159.552 166.85 165.598C164.648 168.895 158.53 169.419 155 170.425C145.897 173.021 123.485 175.201 118.15 183.561C114.831 188.761 117 199.986 117 206L183 189C183 143.365 190.001 96.4417 194.196 51C195.305 38.9939 197.975 27.0824 198 15L115 15Z" style="fill:#2a65f1; stroke:none;"/><path d="M20 26L20 32L21 32L20 26Z" style="fill:#6d82db; stroke:none;"/><path d="M212 26L212 32L213 32L212 26Z" style="fill:#6b7fcc; stroke:none;"/><path d="M54 40L56 65L151 65L149 91L59 91L61 115L147 115L142.861 145.616L131 150.839L115 154.281L89 148L87 128L62 128C63.2458 137.543 60.2256 158.616 66.1489 166.311C69.6179 170.817 82.6586 172.115 88 173.729C96.486 176.293 107.113 180.682 116 180.757C132.77 180.898 151.739 170.898 168 167L179 40L54 40Z" style="fill:#fefefe; stroke:none;"/><path d="M22 53L22 56L23 56L22 53Z" style="fill:#7c8ee2; stroke:none;"/><path d="M210 53L210 56L211 56L210 53Z" style="fill:#7f92d3; stroke:none;"/><path d="M55 56L55 60L56 60L55 56Z" style="fill:#617bd9; stroke:none;"/><path d="M177 56L177 59L178 59L177 56Z" style="fill:#87a3e2; stroke:none;"/><path d="M23 63L23 67L24 67L23 63Z" style="fill:#abb5e0; stroke:none;"/><path d="M56 65L56 66L151 66L121 65L56 65Z" style="fill:#a9bded; stroke:none;"/><path d="M117 67L117 89L148 89L149 67L117 67Z" style="fill:#2a65f1; stroke:none;"/><path d="M25 84L25 88L26 88L25 84Z" style="fill:#a1b0e2; stroke:none;"/><path d="M174 84L174 91L175 91L174 84Z" style="fill:#b7cdfc; stroke:none;"/><path d="M207 84L207 88L208 88L207 84Z" style="fill:#9baeed; stroke:none;"/><path d="M59 90L59 91L149 91L120 90L59 90Z" style="fill:#a0b5e6; stroke:none;"/><path d="M26 94L26 99L27 99L26 94Z" style="fill:#a0adf1; stroke:none;"/><path d="M206 94L206 99L207 99L206 94Z" style="fill:#91a0dc; stroke:none;"/><path d="M173 97L173 102L174 102L173 97Z" style="fill:#93a7df; stroke:none;"/><path d="M59 99L59 106L60 106L59 99Z" style="fill:#7185d8; stroke:none;"/><path d="M27 105L27 110L28 110L27 105Z" style="fill:#90a1e0; stroke:none;"/><path d="M205 105L205 109L206 109L205 105Z" style="fill:#889de8; stroke:none;"/><path d="M172 108L172 117L173 117L172 108Z" style="fill:#6588e4; stroke:none;"/><path d="M60 110L60 115L61 115L60 110Z" style="fill:#9ca8e0; stroke:none;"/><path d="M61 115L61 116L147 116L120 115L61 115Z" style="fill:#c8d0ef; stroke:none;"/><path d="M204 115L204 123L205 123L204 115Z" style="fill:#7288d6; stroke:none;"/><path d="M116 117L116 153C122.048 153.769 140.187 151.837 143.283 145.616C147.077 137.991 145.046 125.253 145 117L116 117Z" style="fill:#2a65f1; stroke:none;"/><path d="M28 118L28 123L29 123L28 118Z" style="fill:#91a5eb; stroke:none;"/><path d="M171 123L171 128L172 128L171 123Z" style="fill:#6c8ad9; stroke:none;"/><path d="M203 126L203 134L204 134L203 126Z" style="fill:#6177dd; stroke:none;"/><path d="M29 127L29 133L30 133L29 127Z" style="fill:#6d7dce; stroke:none;"/><path d="M62 127L62 128L87 128L62 127Z" style="fill:#8294e5; stroke:none;"/><path d="M87 128L87 134L88 134L87 128Z" style="fill:#adb7e6; stroke:none;"/><path d="M62 131L62 139L63 139L62 131Z" style="fill:#bac4ef; stroke:none;"/><path d="M144 136L144 140L145 140L144 136Z" style="fill:#97aee3; stroke:none;"/><path d="M88 138L88 143L89 143L88 138Z" style="fill:#8da0e6; stroke:none;"/><path d="M30 142L30 146L31 146L30 142Z" style="fill:#9eaeef; stroke:none;"/><path d="M202 142L202 146L203 146L202 142Z" style="fill:#a4b2db; stroke:none;"/><path d="M63 146L63 151L64 151L63 146Z" style="fill:#647ed8; stroke:none;"/><path d="M31 154L31 157L32 157L31 154Z" style="fill:#8193cd; stroke:none;"/><path d="M114 154L114 155L118 155L114 154Z" style="fill:#7e92c6; stroke:none;"/><path d="M201 154L201 158L202 158L201 154Z" style="fill:#bdcdf7; stroke:none;"/><path d="M64 158L64 161L65 161L64 158Z" style="fill:#8794d3; stroke:none;"/><path d="M32 164L32 168L33 168L32 164Z" style="fill:#9fb2ef; stroke:none;"/><path d="M200 164L200 169L201 169L200 164Z" style="fill:#b3beec; stroke:none;"/><path d="M165.667 167.333l0.6660 0.3340l-0.6660 -0.3340z" style="fill:#95a7e3; stroke:none;"/><path d="M69.6667 168.333l0.6666 0.3340l-0.6666 -0.3340z" style="fill:#97a4ec; stroke:none;"/><path d="M140.667 174.333l0.6660 0.3340l-0.6660 -0.3340z" style="fill:#8babf2; stroke:none;"/><path d="M136.667 175.333l0.6660 0.3340l-0.6660 -0.3340z" style="fill:#a4bbf0; stroke:none;"/><path d="M101 177L101 178L104 178L101 177Z" style="fill:#8496da; stroke:none;"/><path d="M34 185L34 189L35 189L34 185Z" style="fill:#9daef1; stroke:none;"/><path d="M35 195L35 201L36 201L35 195Z" style="fill:#909ede; stroke:none;"/><path d="M197 195L197 201L198 201L197 195Z" style="fill:#93a5ea; stroke:none;"/><path d="M195.667 201.333l0.6660 0.3340l-0.6660 -0.3340z" style="fill:#a2ade6; stroke:none;"/><path d="M174.667 207.333l0.6660 0.3340l-0.6660 -0.3340z" style="fill:#9facf0; stroke:none;"/><path d="M60 208L60 209L63 209L60 208Z" style="fill:#a2acdc; stroke:none;"/><path d="M170 208L170 209L173 209L170 208Z" style="fill:#9ea8df; stroke:none;"/><path d="M64 209L64 210L67 210L64 209Z" style="fill:#92a7f1; stroke:none;"/><path d="M68.6667 210.333l0.6666 0.3340l-0.6666 -0.3340z" style="fill:#8295db; stroke:none;"/><path d="M89 216L89 217L92 217L89 216Z" style="fill:#91a1d8; stroke:none;"/><path d="M141 216L141 217L144 217L141 216Z" style="fill:#91a7e6; stroke:none;"/><path d="M93 217L93 218L96 218L93 217Z" style="fill:#8ca1e6; stroke:none;"/><path d="M96 218L96 219L99 219L96 218Z" style="fill:#afbaf1; stroke:none;"/></svg>