<?xml version="1.0" encoding="UTF-8" ?><svg height="250" width="250" xmlns="http://www.w3.org/2000/svg"><path d="M0 0L0 250L250 250L250 0L0 0Z" style="fill:#fefefe; stroke:none;"/><path d="M74 49C80.6596 48.3756 92.0216 47.2745 92 58L92 59L99 58L91 47L114 51L105 59L119 54L121 64L128 64C123.233 52.5084 120.007 41.5466 120 29C105.845 31.9751 81.8927 35.403 74 49Z" style="fill:#ced7dc; stroke:none;"/><path d="M92 42L117 47L116 35C108.361 35.2333 98.3046 37.568 92 42M75 49C78.8792 55.9257 86.5609 57.606 94 58C87.7183 49.2043 85.3202 46.2181 75 49M91 47L96 58L96 59L122 63L119 54L105 59L114 51L91 47Z" style="fill:#fefefe; stroke:none;"/><path d="M73 49L73 53L74 53L75 49L73 49Z" style="fill:#c2959a; stroke:none;"/><path d="M74 50C74.6754 59.819 82.626 64.5815 88.0381 72C95.1959 81.8115 98.2881 93.9401 96.7757 106C95.1835 118.696 85.6151 130.23 76.9896 139C71.9495 144.125 65.2502 148.986 63 156C73.7706 151.43 83.3658 144.66 94 139.873C130.832 123.294 177.2 108.235 218 108C190.161 54.2471 116.66 76.6572 74 50Z" style="fill:#af1e1b; stroke:none;"/><path d="M87.6667 57.3333l0.6666 0.3334l-0.6666 -0.3334z" style="fill:#d39e9c; stroke:none;"/><path d="M97 59L97 60L100 60L97 59Z" style="fill:#d0a4a5; stroke:none;"/><path d="M85.6667 61.3333l0.6666 0.3334l-0.6666 -0.3334z" style="fill:#f1adae; stroke:none;"/><path d="M86 62L96 77L110 66L86 62Z" style="fill:#fefefe; stroke:none;"/><path d="M90.6667 62.3333l0.6666 0.3334l-0.6666 -0.3334z" style="fill:#c38484; stroke:none;"/><path d="M115 62L115 63L118 63L115 62Z" style="fill:#e7aaa8; stroke:none;"/><path d="M95.6667 63.3333l0.6666 0.3334l-0.6666 -0.3334z" style="fill:#d07577; stroke:none;"/><path d="M128.667 64.3333l0.6660 0.3334l-0.6660 -0.3334z" style="fill:#d27f87; stroke:none;"/><path d="M135.667 65.3333l0.6660 0.3334l-0.6660 -0.3334z" style="fill:#ca9a9b; stroke:none;"/><path d="M102 80L120 84L118 68C111.573 70.0163 105.21 73.9577 102 80M122 68L125 82L144 72L122 68Z" style="fill:#fefefe; stroke:none;"/><path d="M133.667 69.3333l0.6660 0.3334l-0.6660 -0.3334z" style="fill:#d79293; stroke:none;"/><path d="M140.667 70.3333l0.6660 0.3334l-0.6660 -0.3334z" style="fill:#bb6e70; stroke:none;"/><path d="M153 73L146 91L177 81C170.569 76.0959 160.895 74.1396 153 73M127 86L127 87L141 93L148 75L127 86Z" style="fill:#fefefe; stroke:none;"/><path d="M124 76L126 83L124 76Z" style="fill:#c08286; stroke:none;"/><path d="M120 77L120 84L121 84L120 77Z" style="fill:#c47270; stroke:none;"/><path d="M99.6667 83.3333l0.6663 0.3334l-0.6663 -0.3334z" style="fill:#f1abac; stroke:none;"/><path d="M99 84L101 100C107.112 97.74 113.709 92.6578 117 87L99 84Z" style="fill:#fefefe; stroke:none;"/><path d="M176.667 85.3333l0.6660 0.3334l-0.6660 -0.3334z" style="fill:#db9698; stroke:none;"/><path d="M146 96C149.079 99.6199 157.005 108.572 161.99 108.565C169.391 108.556 178.218 90.7923 181 85L146 96M185 85L168 111L210 104C204.073 95.874 194.605 88.2423 185 85M123 91L119 105L135 97L135 95L123 91Z" style="fill:#fefefe; stroke:none;"/><path d="M117 93L119 95L119 93L117 93Z" style="fill:#e38280; stroke:none;"/><path d="M104 106L112 109L118 94L104 106Z" style="fill:#fefefe; stroke:none;"/><path d="M141.667 99.3333l0.6660 0.3334l-0.6660 -0.3334z" style="fill:#c8696b; stroke:none;"/><path d="M101.667 100.333l0.6660 0.3340l-0.6660 -0.3340z" style="fill:#c96569; stroke:none;"/><path d="M127 122L159 114C156.011 109.902 148.225 99.9369 142.259 101.069C136.87 102.093 129.122 117.264 127 122M115 112L121 121L135 102L115 112Z" style="fill:#fefefe; stroke:none;"/><path d="M200.667 105.333l0.6660 0.3340l-0.6660 -0.3340z" style="fill:#c18686; stroke:none;"/><path d="M96.3333 107.667l0.3334 0.6660l-0.3334 -0.6660z" style="fill:#da9394; stroke:none;"/><path d="M182.667 108.333l0.6660 0.3340l-0.6660 -0.3340z" style="fill:#dfa0a2; stroke:none;"/><path d="M209 108L209 109L212 109L209 108Z" style="fill:#cc9c9a; stroke:none;"/><path d="M101 109L98 118L107 112L101 109Z" style="fill:#fefefe; stroke:none;"/><path d="M177.667 109.333l0.6660 0.3340l-0.6660 -0.3340z" style="fill:#c89090; stroke:none;"/><path d="M167.667 111.333l0.6660 0.3340l-0.6660 -0.3340z" style="fill:#e19e9d; stroke:none;"/><path d="M111 116L98 133C105.373 130.902 125.98 124.132 111 116Z" style="fill:#fefefe; stroke:none;"/><path d="M102 120L101 123L102 120Z" style="fill:#edb1af; stroke:none;"/><path d="M126 121L126 123L128 123L126 121Z" style="fill:#ee9392; stroke:none;"/><path d="M146 121L147 133L127 128L145 137L122 151L125 130C118.497 132.489 118.708 143.9 117 150L104 137L115 156L88 166L101 137L94 139L94 140L96 141L82 166L79 148C71.8924 153.067 76.1197 163.057 78 170L52 172L68 154C49.55 159.602 36.2311 181.378 54.0629 196.306C68.8711 208.703 89.5032 212.268 108 214.863C114.945 215.837 124.045 217.551 130.937 215.588C137.092 213.835 139.808 205.215 142.209 200C150.247 182.541 153.064 163.058 152.999 144C152.976 137.061 153.228 124.117 146 121Z" style="fill:#d0d8db; stroke:none;"/><path d="M85 138L101 122C94.0179 125.143 88.3473 131.151 85 138M88 166L115 156L104 137L117 150C119.381 143.479 118.628 133.819 125 130L122 151C129.997 148.559 139.488 143.324 145 137L127 128L147 133L147 122C135.529 122.624 110.068 128.455 101.817 136.883C95.9806 142.844 91.4746 158.162 88 166Z" style="fill:#fefefe; stroke:none;"/><path d="M84.3333 137.667l0.3334 0.6660l-0.3334 -0.6660z" style="fill:#eb7f86; stroke:none;"/><path d="M79 147L82 166L96 140L79 147M125 155L125 156L148 161L149 142L125 155M52 172L78 170L76 150C66.1741 153.022 56.4824 162.927 52 172Z" style="fill:#fefefe; stroke:none;"/><path d="M58 158L63 154L58 158Z" style="fill:#751924; stroke:none;"/><path d="M57 158L58 159L57 158Z" style="fill:#541b21; stroke:none;"/><path d="M119 158L110 181L141 166L119 158M112 161L87 171C95.9019 187.679 116.691 177.739 112 161M112 185C117.292 188.509 135.715 194.606 141.075 189.283C145.413 184.974 146.661 173.83 147 168L112 185M50 177C50.0721 182.05 51.4542 193.718 59.0001 192.87C65.2615 192.167 72.6543 180.213 75 175L50 177M66 195L99 186C95.6476 182.994 86.7526 175.475 82.1181 176.119C76.3362 176.922 68.3184 190.108 66 195M105 188L93 205C103.285 203.112 123.938 202.422 131 194L105 188M96 191L67 199L67 200C76.1767 203.583 96.9406 208.801 96 191M137 197L99 208L99 209C109.582 211.532 141.32 217.971 137 197Z" style="fill:#fefefe; stroke:none;"/></svg>