<?xml version="1.0" encoding="UTF-8" ?><svg height="250" width="250" xmlns="http://www.w3.org/2000/svg"><path d="M0 0L0 250L250 250L250 0L0 0Z" style="fill:#fefefe; stroke:none;"/><path d="M11 185L54 162C43.022 138.093 40.0923 114.722 53.8999 91C80.8285 44.7366 149.296 44.0612 176 91L218 67C210.647 53.7549 187.843 45.7757 175 38.4253L138 17.144C131.109 13.1767 124.191 8.02229 116 7.37642C106.279 6.60988 96.9775 14.2951 89 18.8534C72.3021 28.3945 55.8211 38.3645 39 47.6834C30.6223 52.3246 18.5354 57.0105 12.9101 65.0305C6.58956 74.0417 9 87.5767 9 98C9 125.166 3.71323 158.781 11 185Z" style="fill:#669ad3; stroke:none;"/><path d="M176 161L145 144C136.65 154.781 125.187 162.362 111 160.792C81.9104 157.573 70.5429 120.935 91.0629 101.126C102.487 90.0981 119.502 88.1178 133 96.5057C137.213 99.1235 141.324 105.967 146.115 106.996C153.858 108.66 168.816 95.1848 176 92C172.108 77.1857 154.488 65.4897 141 60.2124C98.2037 43.4681 47.5464 73.0921 44.1155 120C41.8857 150.485 59.4948 180.186 88 191.782C116.804 203.5 164.659 194.044 176 161Z" style="fill:#fefefe; stroke:none;"/><path d="M115 126L115 127L171 158.484L217 185C222.219 173.229 220 158.684 220 146C220 120.544 223.549 92.0538 219 67L186 85.1273L115 126Z" style="fill:#00599d; stroke:none;"/><path d="M220 73L220 178L221 178L221 106L220 73Z" style="fill:#1b517d; stroke:none;"/><path d="M146 109C131.231 85.9526 95.793 84.5174 83.3517 111C80.7212 116.599 75.7562 139.583 85.3425 141.996C90.0125 143.172 98.1333 136.37 102 134.144C116.638 125.717 131.076 116.921 146 109Z" style="fill:#669ad3; stroke:none;"/><path d="M85 143C91.2439 159.792 112.747 163.961 128 158.621C133.305 156.764 141.821 152.038 143.303 146.07C144.281 142.132 138.664 139.944 136 138.432C128.173 133.992 118.24 124.654 109 129.474C100.861 133.72 93.2937 139.033 85 143Z" style="fill:#004581; stroke:none;"/><path d="M97 156L98 157L97 156Z" style="fill:#839cba; stroke:none;"/><path d="M12 185C16.4749 193.78 27.76 198.145 36 202.853C54.0359 213.159 72.0794 223.478 90 233.983C98.1288 238.748 107.09 245.827 117 244.789C124.666 243.986 131.485 238.895 138 235.144C150.334 228.043 162.759 221.059 175 213.798C188.251 205.938 216.61 196.527 220 180L219 180L217 185L176 162C153.843 194.338 112.582 207.806 78 186.061C68.0158 179.783 60.8138 171.463 54 162L12 185Z" style="fill:#004481; stroke:none;"/><path d="M55 164L56 165L55 164Z" style="fill:#879eb7; stroke:none;"/><path d="M220.333 178.667l0.3340 0.6660l-0.3340 -0.6660z" style="fill:#adc3d5; stroke:none;"/><path d="M153 185L154 186L153 185Z" style="fill:#869eb7; stroke:none;"/><path d="M122.667 196.333l0.6660 0.3340l-0.6660 -0.3340z" style="fill:#6784a5; stroke:none;"/><path d="M204 196L205 197L204 196Z" style="fill:#859cb4; stroke:none;"/><path d="M152 226L153 227L152 226Z" style="fill:#889cb2; stroke:none;"/></svg>