<?xml version="1.0" encoding="UTF-8" ?><svg height="279" width="180" xmlns="http://www.w3.org/2000/svg"><path d="M0 0L0 82L1 82C3.30522 75.9475 7.2407 70.2763 8.91409 64C10.9536 56.3504 3.79759 47.4518 16 45C16.0285 31.1499 25.878 21.2006 39 17L45 0L0 0Z" style="fill:#758362; stroke:none;"/><path d="M45 0C44.9798 7.26453 42.1493 12.8207 36 17L36 18L43 18L43 17L40 17L46 13L47 13L47 0L45 0Z" style="fill:#3c4824; stroke:none;"/><path d="M47 0L47 13L46 13L44 11L45 16L46 16L51 14L51 13L47 0Z" style="fill:#738356; stroke:none;"/><path d="M48 0L48 12C51.4653 9.82834 52.7897 8.98254 56 12L57 12L53 0L48 0Z" style="fill:#484f2e; stroke:none;"/><path d="M53 0C54.0852 11.4129 68.6941 30.2703 79 35L92 8L91 11L111 16L114 26L118 24L119 24L120 24L122 26L126 16L134 16L140 0C130.03 0 105.131-4.7894 101 6L106 6L107 14L106 14C103.259 10.1842 100.397 10.497 96 11L93 2L92 2L92 5L91 5L90 0L53 0Z" style="fill:#748261; stroke:none;"/><path d="M90 0L91 5L92 5L92 2L93 2L96 11L106 14L107 14L106 6L101 6L103 0L98 0L96 7L94 0L90 0Z" style="fill:#4a5439; stroke:none;"/><path d="M94 0L96 7L98 0L94 0Z" style="fill:#7c856a; stroke:none;"/><path d="M140 0L134 14L139 10L144 13L145 13L145 6L144 6L144 9L143 9L143 0L140 0Z" style="fill:#454f2d; stroke:none;"/><path d="M143 0L143 9L144 9L144 6L145 6L145 13L144 13L139 10L137 14L148 16L150 21L151 21L150 13L146 13L148 0L146 4L145 4L145 0L143 0Z" style="fill:#757a63; stroke:none;"/><path d="M145 0L145 4L146 4L145 0Z" style="fill:#373c25; stroke:none;"/><path d="M148 0L146 13L150 13L151 21L152 21L148 0Z" style="fill:#4f543d; stroke:none;"/><path d="M149 0L153.799 31.0594L155.853 55L157 78L157 79L180 79L180 58L169 61C168.083 50.4847 163.841 29.0095 170 20L169 23L180 20L180 0L149 0Z" style="fill:#77835f; stroke:none;"/><path d="M51 14L56 12C53.1391 7.81082 50.0969 8.96072 51 14Z" style="fill:#999f83; stroke:none;"/><path d="M90 8L88 14L89 14L92 8L90 8Z" style="fill:#566234; stroke:none;"/><path d="M88 20L107 19C101.634 10.8643 88.8618 7.50629 88 20Z" style="fill:#e2ebaa; stroke:none;"/><path d="M43 12C43.3576 18.9038 48.1176 19.4935 52.8036 23.6416C59.0776 29.1953 64.8847 39.9 74 34L68 57L67 62L71 66L71 61L95 61L95 62L88 63C92.6441 66.8613 95.965 62.2473 101 61.2941C107.344 60.0932 114.555 61 121 61C120.233 46.5025 112.847 31.4674 108 18C101.264 20.1071 93.4985 21.4164 87 18L79 35C71.2596 29.9433 57.4133 2.74106 46 16L45 16L45 12L43 12Z" style="fill:#cee58a; stroke:none;"/><path d="M42 13L40 17C42.6489 16.4324 43.3548 15.4122 42 13Z" style="fill:#76855c; stroke:none;"/><path d="M130 17L135 23L134 26L141 24L150 26C144.119 15.9926 140.714 13.564 130 17Z" style="fill:#daec98; stroke:none;"/><path d="M129 14C126.667 22.6238 121.907 28.7239 114 33L111 24L110 24L121 61L102 61L102 63C112.021 62.4755 121.886 59.7269 122 73L125 64L130 64C129.455 75.0004 133.312 76.8235 142 70C142.039 65.5278 143.646 63.8515 148 63L148 64L145 64L145 65L150 64L147 79L159 78L148 16L144 16L150 26L141 24L134 26L135 23L130 17L134 17L129 14Z" style="fill:#a1ad6b; stroke:none;"/><path d="M107 17L114 33C121.236 30.2579 127.301 23.8412 128 16L126 16L122 26L120 24L119 24L118 24L114 26L111 16L107 17Z" style="fill:#8c9f5d; stroke:none;"/><path d="M18 33C25.38 28.3685 34.5338 17.8791 44 20.6489C53.8381 23.5276 58.1207 35.1073 68 38C55.7291 23.344 44.4293 12.8997 26.8854 23.9628C22.6276 26.6478 19.6329 27.9537 18 33Z" style="fill:#101809; stroke:none;"/><path d="M20 33L17 32L17 51L18 51L30 28C37.9845 29.0481 45.9292 26.8623 49 36L50 36L50 33L60 35L60 39C64.718 40.4691 68.1177 41.6081 72 38C59.1373 34.9971 50.2405 16.4066 36.0104 20.521C32.6561 21.4908 30.6068 24.1903 27.8142 26.0727C24.343 28.4125 21.837 29.0048 20 33Z" style="fill:#3d4538; stroke:none;"/><path d="M168 20L169 61L180 58L180 20L169 23L170 20L168 20Z" style="fill:#8e967e; stroke:none;"/><path d="M30 30L33 29L30 30Z" style="fill:#959988; stroke:none;"/><path d="M35 28L48 34C46.7148 27.9403 40.2926 28.2771 35 28Z" style="fill:#0c170f; stroke:none;"/><path d="M27 36L32 37L31 53C34.3076 53 36.3304 59.4732 39 61.8333C45.1444 67.2653 52.7768 71 61 71L55 60L64 63L55 47L48 48L48 49L51 53L44 54L48 51L46 44L36 47L36 46L41 46L41 45C33.1277 41.9584 33.9516 34.9117 42 33C35.555 29.4461 29.7428 27.7327 27 36Z" style="fill:#e3cf94; stroke:none;"/><path d="M38.6667 31.3333l0.6666 0.3334l-0.6666 -0.3334z" style="fill:#7d8472; stroke:none;"/><path d="M42 32L40 33L40 34L42 32Z" style="fill:#5f6c52; stroke:none;"/><path d="M34 41L35 41L40 34C35.6864 33.7596 34.5273 37.2357 34 41Z" style="fill:#9c9078; stroke:none;"/><path d="M43 35L46 34L54 39C51.3085 36.1028 46.6517 31.6077 43 35Z" style="fill:#a7b09f; stroke:none;"/><path d="M50 33L55 40C62.8145 41.4293 73.4194 45.358 74 34C67.997 38.7104 68.7369 40.8797 60 39L60 35L50 33Z" style="fill:#141c0f; stroke:none;"/><path d="M39.1538 34.9187c-6.3756 2.3181 -2.3347 10.4947 3.6897 8.1730c6.0401 -2.3278 1.9097 -10.2088 -3.6897 -8.1730z" style="fill:#dee6db; stroke:none;"/><path d="M44 34C45.625 37.8513 45.969 39.8925 43 43L43 44L47 44L50 38L44 34Z" style="fill:#8a917f; stroke:none;"/><path d="M16 35L16 45C3.33945 46.3775 10.5256 56.4648 8.46824 64C6.46014 71.3549 1.44279 77.4391 0 85L1 85C4.60618 78.7307 9.9866 70.2329 10.9879 63C11.5055 59.2614 8.56672 55.7396 9.79025 52.0774C10.9305 48.6644 13.8732 48.0253 17 48L18 35L16 35Z" style="fill:#191400; stroke:none;"/><path d="M26 36L21 48L22 48L24 46C22.7891 48.0352 21.456 49.9806 20.213 52C19.4403 53.2552 18.4896 54.5978 18.0046 56C16.8703 59.28 18.6331 63.708 22.4537 60.5185C25.2103 58.2173 34.622 43.1036 28 42L30 37L26 36Z" style="fill:#e9eae2; stroke:none;"/><path d="M31 37L30 40L31 37Z" style="fill:#534a21; stroke:none;"/><path d="M52 37L52 38L55 39L52 37Z" style="fill:#656d62; stroke:none;"/><path d="M28 42L31 51L32 51L32 39L28 42Z" style="fill:#827c5c; stroke:none;"/><path d="M49.4052 40.1609c-4.3197 2.8576 0.0936 8.1733 4.1754 5.5236c4.2145 -2.7357 -0.1573 -8.1817 -4.1754 -5.5236z" style="fill:#e7efe0; stroke:none;"/><path d="M38 40L38 42L40 42L40 40L38 40Z" style="fill:#879186; stroke:none;"/><path d="M55 40L55 41C60.1021 48.2555 58.9219 58.7147 69 62L68 57C71.3172 53.695 72.8456 46.5289 72 42L55 40Z" style="fill:#b3c573; stroke:none;"/><path d="M35.3333 41.6667l0.3334 0.6666l-0.3334 -0.6666z" style="fill:#606449; stroke:none;"/><path d="M56 41C55.283 50.2405 58.8184 55.7079 64 63L56 61L61 71L52 70C55.2107 73.7377 60.4221 72.9973 65 73L58 63L69 66L56 41Z" style="fill:#1b1d00; stroke:none;"/><path d="M27 42L28 43L27 42Z" style="fill:#423b1f; stroke:none;"/><path d="M63 42L63 43L71 43L63 42Z" style="fill:#4d573e; stroke:none;"/><path d="M36 43L36 44L41 45L41 46L36 46L36 47L44 44L36 43Z" style="fill:#836d48; stroke:none;"/><path d="M49 43L49 45L51 45L51 43L49 43Z" style="fill:#8b8d8a; stroke:none;"/><path d="M25 44L26 45L25 44Z" style="fill:#514932; stroke:none;"/><path d="M46 44L48 51L44 54L51 53L48 49L48 48L56 48L46 44Z" style="fill:#7e6b41; stroke:none;"/><path d="M20 46L18 51L17 51L17 48C9.63663 48.3764 6.05631 55.4483 13 60C5.97293 74.8096 0 85.3604 0 102L49 103L56 80C43.4556 80 17.3792 79.6679 15.7935 62.0271C15.2421 55.8937 22.3673 52.7386 20 46Z" style="fill:#e3cc96; stroke:none;"/><path d="M22 46L21 50L24 46L22 46Z" style="fill:#766f5d; stroke:none;"/><path d="M13 47L13 48L16 48L13 47Z" style="fill:#8a8c76; stroke:none;"/><path d="M29 50L27 56L28 56L31 50L29 50Z" style="fill:#9ba197; stroke:none;"/><path d="M30 51L23 63C29.4463 66.6124 38.4791 72.5333 46 71L50 75L51 70L46 70C44.1819 67.1509 40.4583 62.6834 37 65L36 65L30 51Z" style="fill:#e2eadd; stroke:none;"/><path d="M32.3333 52.6667l0.3334 0.6666l-0.3334 -0.6666z" style="fill:#534926; stroke:none;"/><path d="M32 54L36 65L37 65L46 70L52 72L53 69L32 54Z" style="fill:#837663; stroke:none;"/><path d="M43 54L43 58L49 58L49 57L43 54Z" style="fill:#9c874e; stroke:none;"/><path d="M26 55L18 63C20.774 71.2461 28.7995 75.7994 37 77C36.9204 67.7418 30.777 66.2374 23 63L26 55Z" style="fill:#7c514b; stroke:none;"/><path d="M16 57C16.0485 79.2228 38.7394 80 56 80L56 79L40 78L40 74L39 74L39 77L38 77L37 75C32.4303 82.6161 15.6747 62.9187 20 64L16 57Z" style="fill:#74412c; stroke:none;"/><path d="M15 58L15 63L16 63L15 58Z" style="fill:#8a7967; stroke:none;"/><path d="M12.3333 60.6667l0.3334 0.6666l-0.3334 -0.6666z" style="fill:#71654f; stroke:none;"/><path d="M55 62L58 61L55 62Z" style="fill:#524220; stroke:none;"/><path d="M71 61L71 66L65 66C65.9594 72.9008 70.7719 75.1309 77 77L73 74L73 63L95 62L71 61Z" style="fill:#abba75; stroke:none;"/><path d="M98 61L98 62L102 62L98 61Z" style="fill:#6c773f; stroke:none;"/><path d="M11.3333 62.6667l0.3334 0.6666l-0.3334 -0.6666z" style="fill:#665f4d; stroke:none;"/><path d="M92 68L100 63L92 72L92 73L105 71L105 70L98 70L102 62C97.2252 62.2324 93.7794 63.3008 92 68Z" style="fill:#141102; stroke:none;"/><path d="M107 62L107 63L119 63L107 62Z" style="fill:#c3d694; stroke:none;"/><path d="M58 63L64 66L64 74L77 81L78 81L80 80L78 73L73 73L73 74L77 77C72.4312 75.0946 63.9428 72.1645 67 66L58 63Z" style="fill:#6b732a; stroke:none;"/><path d="M73 63C75.3378 67.4179 78.0816 68.7507 83 69L83 65L82 65L82 68L73 63Z" style="fill:#b5bead; stroke:none;"/><path d="M74 63L82 68L83 63L74 63Z" style="fill:#e7f1d8; stroke:none;"/><path d="M84 63L84 78L85 78L85 65L89 67L84 63Z" style="fill:#050500; stroke:none;"/><path d="M89 73L88 73L88 66L86 66L86 82L92 82L92 79L102 82C99.898 78.3083 97.1012 77.4467 93 77L93 75L104 73L104 72L92 73L92 72L100 63L89 73Z" style="fill:#d9c39e; stroke:none;"/><path d="M98 70C106.2 68.5112 113.412 70.2867 119 63C110.482 63 102.352 61.2212 98 70Z" style="fill:#e0eadf; stroke:none;"/><path d="M119 63L115 70L119 65L120 65L120 72L121 72L119 63Z" style="fill:#bcc6ae; stroke:none;"/><path d="M142 70L139 73C147.739 70.9478 145.001 82.4701 145 88L146 88L146 85L150 85L150 84L147 84L147 80L157 80L157 79L147 79L150 64L149 64L147 71L143 71L143 65L148 64C143.234 62.5333 141.445 65.5691 142 70Z" style="fill:#838838; stroke:none;"/><path d="M83 64L83 69L84 69L83 64Z" style="fill:#4b5039; stroke:none;"/><path d="M121 64L121 72C115.23 73.2239 116.004 77.996 116 83L117 83L119 78L119 77L117 77L117 76L123 74L121 64Z" style="fill:#869260; stroke:none;"/><path d="M125 64C124.868 70.5298 122.737 73.0598 117 76L117 77C124.366 75.9991 129.615 71.5813 130 64L125 64Z" style="fill:#6c711f; stroke:none;"/><path d="M35.3333 65.6667l0.3334 0.6666l-0.3334 -0.6666z" style="fill:#393f31; stroke:none;"/><path d="M73 65L74 73L78 73L78 79C82.9004 77.2473 82.9593 73.7635 83 69L73 65Z" style="fill:#dee4c0; stroke:none;"/><path d="M85 65L85 72L86 72L87 65L85 65Z" style="fill:#a19f86; stroke:none;"/><path d="M89 65L92 67L92 66L89 65Z" style="fill:#969789; stroke:none;"/><path d="M119 65C115.443 69.2385 112.416 69.9569 107 70L107 72L120 72L119 65Z" style="fill:#e1efce; stroke:none;"/><path d="M127 65L127 67L129 67L129 65L127 65Z" style="fill:#bac26c; stroke:none;"/><path d="M143 65L145 67L143 71L147 71L149 65L143 65Z" style="fill:#dbdf66; stroke:none;"/><path d="M61 66L64 70L64 66L61 66Z" style="fill:#c4cc9d; stroke:none;"/><path d="M88 67L88 73L89 73L92 68L88 67Z" style="fill:#847150; stroke:none;"/><path d="M89 71L92 68L89 71Z" style="fill:#150e00; stroke:none;"/><path d="M83 69L83 77L84 77L83 69Z" style="fill:#a4a98b; stroke:none;"/><path d="M100 69L100 70L105 70L100 69Z" style="fill:#5d624c; stroke:none;"/><path d="M105 69L105 70L115 70L105 69Z" style="fill:#909986; stroke:none;"/><path d="M37 70L38 77L39 77L39 73L46 75L37 70Z" style="fill:#1d0d00; stroke:none;"/><path d="M105 70L106 74L107 74L107 70L105 70Z" style="fill:#3b452d; stroke:none;"/><path d="M45 71L43 72L43 73L45 71Z" style="fill:#677262; stroke:none;"/><path d="M99 71L99 72L105 73L99 71Z" style="fill:#90957e; stroke:none;"/><path d="M128 71L131 77L131 79L128 81L144 73L144 72C137.086 72.2407 134.162 76.141 128 71Z" style="fill:#504316; stroke:none;"/><path d="M51 72L50 75L46 74C49.2142 77.8293 54.2756 77.9326 59 78L62 73L52 76L51 72Z" style="fill:#474024; stroke:none;"/><path d="M52 72L52 76L59 73L52 72Z" style="fill:#7b735c; stroke:none;"/><path d="M85 72L85 77L86 77L85 72Z" style="fill:#635a39; stroke:none;"/><path d="M107 72L107 73L117 73L107 72Z" style="fill:#b3b79e; stroke:none;"/><path d="M127 72L117 78L117 83L116 83L116 77L115 77L115 85L131 79L131 77L127 72Z" style="fill:#a8b160; stroke:none;"/><path d="M39 73L40 78L52 78L39 73Z" style="fill:#838a69; stroke:none;"/><path d="M62 73C58.5766 82.466 70.057 84.2607 77 82L77 79L62 73Z" style="fill:#adad67; stroke:none;"/><path d="M100 74L100 75L106 74L100 74Z" style="fill:#000400; stroke:none;"/><path d="M100 76L100 77L104 84C96.9908 82.7189 90.7909 81.8282 85 87C99.8396 88.2946 114.434 90.9469 116 73L100 76Z" style="fill:#dfefd5; stroke:none;"/><path d="M131 81C131.72 83.6786 131.157 88.3396 132.722 90.5278C134.771 93.3929 140.135 94.9545 141 91L142 91L142 93L143 93L144 73L131 81Z" style="fill:#738241; stroke:none;"/><path d="M144 73L141 104L143 104L146 73L144 73Z" style="fill:#cecc75; stroke:none;"/><path d="M97 74L97 75L100 75L97 74Z" style="fill:#6e6852; stroke:none;"/><path d="M89 75L89 80L90 80L89 75Z" style="fill:#624c25; stroke:none;"/><path d="M93 77L96 76L93 77Z" style="fill:#978c6e; stroke:none;"/><path d="M94 76L94 77L102 82L92 79L92 82C84.8227 81.8551 80.9195 88.1196 76.0909 92.6781C64.295 103.814 46.792 115.332 50 133L79 133C83.4438 133 88.1431 132.138 91 136L92 136L92 133L102 135L103 135L125 133L180 133L180 131L88 131C77.7093 131.012 60.1195 126.781 51 131C51.0169 108.215 81.3925 97.2053 93 81L104 83C102.994 77.3438 99.6208 74.9519 94 76Z" style="fill:#462408; stroke:none;"/><path d="M100 75L100 76L103 76L100 75Z" style="fill:#61634d; stroke:none;"/><path d="M58 76L58 82L69 87L72 84L58 76Z" style="fill:#675d18; stroke:none;"/><path d="M81 80L85 78L81 80Z" style="fill:#3b3c1d; stroke:none;"/><path d="M85 77L82 79L82 80L83 86L84 86L87 83L85 77Z" style="fill:#acad8d; stroke:none;"/><path d="M51 78L51 79L56 79L50 100L77 83L77 82L53 96L59 78L51 78Z" style="fill:#2c2916; stroke:none;"/><path d="M80 79L77 81L77 82L80 79Z" style="fill:#000300; stroke:none;"/><path d="M157 79L157 80L180 80L157 79Z" style="fill:#56603e; stroke:none;"/><path d="M81 80L81 86L80 86L80 82C71.9979 84.2032 54.1019 94.1735 50.8447 102.063C48.9389 106.679 50 113.092 50 118L83 87L82 83L84 80L81 80Z" style="fill:#e3ede4; stroke:none;"/><path d="M82 90C98.2922 95.0962 110.343 87.8332 126 86L130 83C126.279 80.1308 123.127 82.0818 119 83.466C112.279 85.7203 105.119 87.6505 98 87.9372C92.1844 88.1715 86.6518 85.6729 82 90Z" style="fill:#705a1e; stroke:none;"/><path d="M147 80L150 84L150 85L144 87C144.015 92.4899 153.192 107.126 159.85 99.2554C164.742 93.4732 156.853 84.1745 168 83L168 80L147 80Z" style="fill:#889867; stroke:none;"/><path d="M168 80L168 83C157.029 83.5686 163.761 94.8253 158 101L158 102L180 110L180 80L168 80Z" style="fill:#707d5f; stroke:none;"/><path d="M79 81L80 86L81 86L79 81Z" style="fill:#7b847f; stroke:none;"/><path d="M93 81L93 82L96 82L93 81Z" style="fill:#8b8f7e; stroke:none;"/><path d="M56 91C61.2369 90.8092 65.1952 89.6475 68 85C60.326 82.7289 56.166 80.9346 56 91Z" style="fill:#a9a274; stroke:none;"/><path d="M130 82L127 91L132 91L132 82L130 82Z" style="fill:#899d68; stroke:none;"/><path d="M76 83L77 84L76 83Z" style="fill:#7e8273; stroke:none;"/><path d="M92 83L93 84L92 83Z" style="fill:#838474; stroke:none;"/><path d="M100 83L100 84L104 84L100 83Z" style="fill:#6a6859; stroke:none;"/><path d="M89 84L89 85L92 85L89 84Z" style="fill:#93917c; stroke:none;"/><path d="M126 86L113 89L113 90L115 102L116 102L116 91L126 92L129 84L126 86Z" style="fill:#a4a44a; stroke:none;"/><path d="M55 86L53 96L60 91L56 91L55 86Z" style="fill:#595635; stroke:none;"/><path d="M52.3333 90.6667l0.3334 0.6666l-0.3334 -0.6666z" style="fill:#776f48; stroke:none;"/><path d="M80 105L91 105L91 106L78 104L77 104C78.1714 114.522 106.611 110 115 110L116 104L115 104L93 106L93 105L113 105L115 90L91 91.8749L80.7767 91.7801L80 105Z" style="fill:#e4eade; stroke:none;"/><path d="M45 91L47 94L45 91Z" style="fill:#867041; stroke:none;"/><path d="M77 91L78 92L77 91Z" style="fill:#70766c; stroke:none;"/><path d="M114 91L115 110L123 112L114 91Z" style="fill:#bac370; stroke:none;"/><path d="M116 91C116.654 97.1216 120.319 98.9236 126 97L126 102L119 103L118 107L131 105L131 104L128 104L128 99C135.196 99 136.976 101.852 135 108L144 105L148 111L149 111L144 96L143 96L143 104L138 98L127 91L126 91L126 96L125 96L125 91L116 91Z" style="fill:#8e7812; stroke:none;"/><path d="M127 91C129.387 94.7598 133.543 97.6105 138 98L140 104L141 104L142 91L141 91L141 94L127 91Z" style="fill:#725313; stroke:none;"/><path d="M30 92L36 98L36 97L30 92Z" style="fill:#877341; stroke:none;"/><path d="M125 92L125 96L126 96L125 92Z" style="fill:#ebd872; stroke:none;"/><path d="M39 93L43 97L39 93Z" style="fill:#6c5728; stroke:none;"/><path d="M78 93L61 112L73 103L71 112L73 113C77.036 112.999 79.6201 113.709 82 110L76 110L76 103L79 103L78 93Z" style="fill:#93803c; stroke:none;"/><path d="M47.3333 94.6667l0.3334 0.6666l-0.3334 -0.6666z" style="fill:#816e43; stroke:none;"/><path d="M79 95L79 103L76 103C76 106.363 75.2842 109.204 79 110L79 109L77 104L78 104L91 106L91 105L80 105L79 95Z" style="fill:#c6ccca; stroke:none;"/><path d="M46.3333 96.6667l0.3334 0.6666l-0.3334 -0.6666z" style="fill:#7d6738; stroke:none;"/><path d="M72 96L73 97L72 96Z" style="fill:#7f8980; stroke:none;"/><path d="M113 96L113 105L93 105L93 106L115 106L113 96Z" style="fill:#c3c5c0; stroke:none;"/><path d="M116 96C116.215 103.552 116.534 108.429 125 108C128.551 118.831 138.84 112.13 144 118L145 118L148 116L148 115L144 114L146 112L146 111L135 111L137 109L137 108L135 106C141.355 102.521 131.201 99.0134 128 99C128.064 101.993 127.946 103.346 131 104L131 105L118 107L121 104L123 99L116 96Z" style="fill:#a9831e; stroke:none;"/><path d="M144 96C144.18 103.999 149.354 107.315 157 105L160 115L145 118L144 118L142 115L142 120L138 119C142.976 125.222 157.937 120.616 165 120L160 108L163 107L163 106L160 105L162 103L144 96Z" style="fill:#843818; stroke:none;"/><path d="M39 97L36 98L36 99L39 97Z" style="fill:#6a5321; stroke:none;"/><path d="M43 97L43 98L46 98L43 97Z" style="fill:#3e2800; stroke:none;"/><path d="M124 97L121 102L126 102L126 97L124 97Z" style="fill:#ede26e; stroke:none;"/><path d="M49 99L49 103L0 102L4 106C6.74301 101.428 31.523 103.908 31 106L37 104L36 112L37 112L38 104L50 106L49 99Z" style="fill:#827555; stroke:none;"/><path d="M51 123C73.6795 125.382 93.5775 125.003 116 123.028C121.191 122.571 136.638 125.355 138 119L142 120L142 116C134.676 115.456 128.722 115.381 125 108L120 108L123 112C115.96 111.728 100.949 109.239 96 115L95 115L95 112L94 112L87 111L76 119C77.561 116.692 77.8832 116.349 75 116L75 115L78 114L73 113L73 111L71 112L73 103C65.6414 106.181 53.528 115.209 51 123Z" style="fill:#90581b; stroke:none;"/><path d="M160 103L163 106L163 107L160 108L165 120C126.164 122.033 89.8706 126.615 51 123L51 131L89.9999 130.999L180 131C180 115.021 179.318 104.134 160 103Z" style="fill:#672411; stroke:none;"/><path d="M4 104L4 105L6 105L6 106L0 105L0 133L23.3525 131.85L33 106L32 104L4 104Z" style="fill:#e5eae4; stroke:none;"/><path d="M33 104L25 133L39 133L37 104L33 104Z" style="fill:#272c28; stroke:none;"/><path d="M38 104C41.6198 108.217 44.677 108.704 48 104L38 104Z" style="fill:#e2dcc6; stroke:none;"/><path d="M4.66667 105.333l0.6667 0.3340l-0.6667 -0.3340z" style="fill:#37392e; stroke:none;"/><path d="M47 105L46 109L47 109L47 107L48 107L51 119L47 105Z" style="fill:#b4b5a5; stroke:none;"/><path d="M135 111L148 111L144 105C139.635 105.465 137.235 107.245 135 111Z" style="fill:#e2e766; stroke:none;"/><path d="M148 105C148.613 108.561 146.983 113.135 151 114L148 105Z" style="fill:#939780; stroke:none;"/><path d="M156 105L158 114L154 114L155 110C152.842 109.022 152.499 108.812 154 107L154 106L150 107L151 114L148 111L144 112L144 114L160 115L156 105Z" style="fill:#8e6b55; stroke:none;"/><path d="M7 106L7 107L10 107L7 106Z" style="fill:#3d423c; stroke:none;"/><path d="M9 107L9 108L13 108L9 107Z" style="fill:#78817e; stroke:none;"/><path d="M28 108L31 106L28 108Z" style="fill:#767f7a; stroke:none;"/><path d="M37 106C37.0227 117.148 35.2324 132.962 49 133L48 107L47 107L44 111L43 111L37 106Z" style="fill:#e7ece8; stroke:none;"/><path d="M39 106L39 108L41 108L39 106Z" style="fill:#5f6561; stroke:none;"/><path d="M155 110L154 114L158 114L156 106C152.95 106.856 150.756 109.108 155 110Z" style="fill:#cbb995; stroke:none;"/><path d="M13 108L13 109L16 109L13 108Z" style="fill:#6c7270; stroke:none;"/><path d="M41 108L43 111L44 111L46 108L41 108Z" style="fill:#626763; stroke:none;"/><path d="M17 109L17 110C21.0671 111.239 23.6801 111.959 27 109L17 109Z" style="fill:#8c8d87; stroke:none;"/><path d="M82 110L75 115L75 116L78 116L76 119L87 111L82 110Z" style="fill:#bda054; stroke:none;"/><path d="M83 110L83 111L94 112L95 112L95 115L96 115C101.186 109.842 108.192 111 115 111L83 110Z" style="fill:#a3ab86; stroke:none;"/><path d="M99 111L99 112L118 112L99 111Z" style="fill:#7f7c49; stroke:none;"/><path d="M48 112L48 129L49 129L48 112Z" style="fill:#6e716a; stroke:none;"/><path d="M29.3333 114.667l0.3334 0.6660l-0.3334 -0.6660z" style="fill:#7c7e79; stroke:none;"/><path d="M37 115L37 123L38 123L37 115Z" style="fill:#abb1ad; stroke:none;"/><path d="M69 116L69 117L74 117L69 116Z" style="fill:#daa95d; stroke:none;"/><path d="M38 124L38 128L39 128L38 124Z" style="fill:#909591; stroke:none;"/><path d="M49 130L49 147L50 147C52.3735 139.743 57.3652 147.865 61 150L53 133L49 130Z" style="fill:#3e482f; stroke:none;"/><path d="M24 132L1 133L1 134L24 132Z" style="fill:#a2a695; stroke:none;"/><path d="M39 132L44 136L45 136L49 134L49 133L39 132Z" style="fill:#a0a795; stroke:none;"/><path d="M0 133L0 260L1 260L1 172C1 160.469 4.03852 143.806 0 133Z" style="fill:#cdd7be; stroke:none;"/><path d="M1 134L1 259L27 247L27 246L27 244L27 243L24 243L24 242C34.2413 238.481 34 233.993 34 224L29 224L41 221L41 220C37.6004 219.978 32.4028 220.504 30.7445 216.702C28.6667 211.939 32.1353 204.832 32.7806 200.001C34.3321 188.386 37.1095 176.744 37.8011 165C38.2888 156.718 37.4892 147.917 46 144L46 134L45 134L44 136C36.7996 128.46 10.9834 134 1 134Z" style="fill:#757d65; stroke:none;"/><path d="M53 133L59 150L59 151C66.3593 153.569 73.859 166.017 77 173C82.887 170.932 87.5388 155.877 89.6528 150C90.9173 146.484 90.7287 142.623 95 142L94 136L93 136L93 140L92 140L91 133L53 133Z" style="fill:#788363; stroke:none;"/><path d="M92 133L92 140L93 140L93 136L94 136L95 142L90 146L106 145L107 150L108 150C107.566 145.186 107.254 141.112 102 140C103.138 132.629 97.9221 133.004 92 133Z" style="fill:#57634b; stroke:none;"/><path d="M103 133L102 140C111.441 143.369 105.887 159.294 114.529 164.959C118.34 167.457 122.028 163.917 124.457 161.218C129.547 155.562 134.601 145.722 141 142L141 133L103 133Z" style="fill:#768461; stroke:none;"/><path d="M141 133L141 142L135 148L145 146L147 133L141 133Z" style="fill:#5e4830; stroke:none;"/><path d="M147 133L144 148L138 146L148 153L149 153L151 148L148 150L147 150L147 133Z" style="fill:#747f55; stroke:none;"/><path d="M148 133L147 150L148 150L151 148L152 161L153 161L150 133L148 133Z" style="fill:#404830; stroke:none;"/><path d="M150 133L152.671 154.001L157.432 200L160 222L158 227L158 228L158 229L160 244L160 245L180 254L180 197L174 197L172 160L171 160L171 201L170 201L169 152C180.563 149.702 180 143.142 180 133L150 133Z" style="fill:#737e60; stroke:none;"/><path d="M46 134L46 144C42.1415 145.3 40.7716 147.015 40 151L41 151L45 146L48 148L46 134Z" style="fill:#39472e; stroke:none;"/><path d="M47 134L48 148L57 147L56 144L50 147L49 147L47 134Z" style="fill:#767e67; stroke:none;"/><path d="M95 134L96 141L99 134L95 134Z" style="fill:#77876c; stroke:none;"/><path d="M144 134L144 141L145 141L146 134L144 134Z" style="fill:#7a886e; stroke:none;"/><path d="M11 138L10 183L22 182L23 148L20 149L20 180L12 180C12.0011 171.587 10.2741 154.913 15 148L14 176L15 176L15 168L16 168L19 178C19 170.96 22.0702 154.49 16 150L18 146L11 138Z" style="fill:#929780; stroke:none;"/><path d="M50 143L51 147L55 146L54 142L50 143Z" style="fill:#9fa77e; stroke:none;"/><path d="M139 144L144 148L139 144Z" style="fill:#909b7d; stroke:none;"/><path d="M91 148L101 147L100 150L107 152L106 145C101.156 145.11 94.2597 143.958 91 148Z" style="fill:#acba7c; stroke:none;"/><path d="M45 146L41 152L44 153L53 149L53 148L45 146Z" style="fill:#a2ae6e; stroke:none;"/><path d="M39 147L37 163L44 151L41 152L39 147Z" style="fill:#67772e; stroke:none;"/><path d="M34 201C36.6625 200.856 37.6363 200.181 38 203L39 203C40.5242 197.786 43.8047 193.795 49 192L49 179L50 179L50 184L51 184L52 162L53 162L54 184L55 184L55 179L64 180L64 176L68 192L72 193L80 175L81 180L86 182L97 180L98 179L96 168C87.3999 167.563 90.0488 162.21 85 158L77 173C74.9307 165.966 66.4472 152.542 59 151L58 147C53.7375 148.104 43.839 151.309 41.1456 154.785C33.6135 164.506 34.0241 189.17 34 201Z" style="fill:#c2d885; stroke:none;"/><path d="M96 168L97 177C102.328 172.873 105.953 169.26 113 169C112.086 159.955 109.758 151.879 100 150L101 147C97.3424 147.022 92.7562 146.609 90.0615 149.603C83.6801 156.693 86.4003 167.786 96 168Z" style="fill:#dae98a; stroke:none;"/><path d="M135 149L135 150L138 149L150 162C143.463 160.614 135.207 158.38 131 153L129 153C126.474 159.078 119.759 169.447 113 163L112 163C113.723 171.875 125.768 174.78 133 179.333C136.129 181.303 140.936 183.964 142 179C152.623 189.311 134.18 189.539 128 189L128 190L137 198L137 193L138 193L143 206C136.842 206.324 136.094 209.288 136 215C140.075 213.441 149.264 195.571 150.393 207.971C150.55 209.698 150.692 211.288 151 213C145.312 217.579 153.033 222.481 157.223 218.85C160.005 216.438 158.122 205.457 157.804 202C156.251 185.119 154.766 168.536 151 152L148 153C144.797 149.462 139.587 148.183 135 149Z" style="fill:#a1b06b; stroke:none;"/><path d="M169 152L170 201L171 201L171 160L172 160L174 197L180 197L180 148L169 152Z" style="fill:#8e967e; stroke:none;"/><path d="M137 149L131 153L131 155L150 162C148.593 155.045 142.638 152.294 137 149Z" style="fill:#e2ef9f; stroke:none;"/><path d="M52 162L51 184L50 184L50 179L49 179L49 192C43.2983 193.177 40.0396 197.424 39 203C43.6271 201.995 48.9545 201.963 47 208L47 209C49.3029 212.641 50.5786 214.522 55 215L54 192L55 192L56 215L64 209L63 206L67 207C68.1473 201.299 68.0997 197.863 73 194L73 193L68 192C67.9697 186.738 68.2798 179.664 64 176L64 180L55 179L55 184L54 184L52 162Z" style="fill:#a8b472; stroke:none;"/><path d="M106 169L106 170L115 170L106 169Z" style="fill:#3b521e; stroke:none;"/><path d="M97 180C85.1849 177.436 85.0285 187.906 76.7409 192.357C68.1126 196.99 70.1708 201.996 64.0714 207.973C47.337 224.371 23.6432 247.247 21 272L22 272C30.5968 246.971 49.1181 223.058 70 207C68.9498 200.64 71.3696 193.204 79 197C82.6635 190.037 89.25 176.028 98 185L99 185C100.577 159.099 129.53 182.085 141 184C130.052 174.531 104.79 160.167 97 180Z" style="fill:#201700; stroke:none;"/><path d="M118.667 171.333l0.6660 0.3340l-0.6660 -0.3340z" style="fill:#4e6038; stroke:none;"/><path d="M99 185L98 185C90.7136 172.325 79.3455 193.208 78 200L102 183L116 184L117 189L118 189L118 184C123.112 184.026 128.95 183.319 132 188L144 187L144 179L141 184C129.563 181.096 99.8082 159.149 99 185Z" style="fill:#373d39; stroke:none;"/><path d="M79 175L72 193C78.8086 192.846 89.8675 179.163 81 180L79 175Z" style="fill:#e2f099; stroke:none;"/><path d="M143 180L144 187L132 188C130.174 182.48 122.897 184.003 118 184L118 188L127 188C127.717 194.732 134.698 202.645 141 205L128 190L128 189C132.28 189 153.715 188.657 143 180Z" style="fill:#051208; stroke:none;"/><path d="M102 183L101 184L101 186C105.608 187.363 114.137 189.558 116 184L102 183Z" style="fill:#0f160f; stroke:none;"/><path d="M78 200L78 195C70.3492 195.39 68.4549 199.947 70 207C61.9009 211.411 50.8542 221.048 48 230C53.5941 229.471 58.5875 224.992 61 220L62 220L62 233L77 229L77 230L61 234L63 238L62 235L84 233L87 236L88 231L89 231L89 236C92.5203 234.609 92.8149 232.639 93 229L94 229L94 236L106 231L106 230C92.0618 225.936 78.2732 224.374 64 228C65.9931 212.905 85.7183 198.309 100 196L100 197L90 200L90 201L103 202L102 205C113.308 203.87 122.476 211.02 133 214L124 203L138 204C135.88 200.532 132.636 196.379 128.804 194.707C123.886 192.561 118.148 193.579 117 187C110.232 192.704 109.839 194.005 100 194L100 193L104 193L104 192L101 186L78 200Z" style="fill:#e2cc9d; stroke:none;"/><path d="M101 186L103 191L101 186Z" style="fill:#867f6c; stroke:none;"/><path d="M102 188L102 190C106.169 191.131 110.225 191.751 113 188L108 190C107.235 186.431 105.059 186.89 102 188Z" style="fill:#ebece4; stroke:none;"/><path d="M108 190L112 187L108 190Z" style="fill:#a5afa7; stroke:none;"/><path d="M119 187L119 188L123 188L119 187Z" style="fill:#505a4f; stroke:none;"/><path d="M113 188L113 190L115 190L115 188L113 188Z" style="fill:#8f8d7e; stroke:none;"/><path d="M118 188C120.604 191.517 124.396 191.517 127 188L118 188Z" style="fill:#d0dbcd; stroke:none;"/><path d="M116 189L121 193L116 189Z" style="fill:#948367; stroke:none;"/><path d="M122.667 189.333l0.6660 0.3340l-0.6660 -0.3340z" style="fill:#798476; stroke:none;"/><path d="M132 189L132 190L143 190L132 189Z" style="fill:#526247; stroke:none;"/><path d="M108 192L108 193L114 190L108 192Z" style="fill:#4d4427; stroke:none;"/><path d="M126 190L122 193L122 194L129 194L129 193L126 190Z" style="fill:#9a8769; stroke:none;"/><path d="M103 191L104 193L100 193L100 194C104.671 194 112.458 196.485 114 191L108 193L108 192L110 192L103 191Z" style="fill:#9b8961; stroke:none;"/><path d="M121 191L121 193L126 192L121 191Z" style="fill:#5f604e; stroke:none;"/><path d="M33 192C32.9751 204.088 23.4995 219.962 41 220L41 221C36.5668 221.001 31.8541 220.141 29 224L34 224C34 234.12 33.4922 237.554 24 242L24 243L27 243L27 244L25 246C32.4435 244.271 50.5904 230.685 42 222L42 221L42 220L47 215L47 214L42 214L42 208C38.3817 207.527 38.5995 203.171 38 200L34 201L33 192Z" style="fill:#a6b572; stroke:none;"/><path d="M54 192C54 197.788 56.6382 211.283 52 215L52 216L56 216L54 192Z" style="fill:#76804b; stroke:none;"/><path d="M137 193L135 199L138 200L137 193Z" style="fill:#6f7b49; stroke:none;"/><path d="M87 203L92 208C92.7859 203.19 95.7065 203.311 100 204L99 208L100 208L103 202L90 201L90 200L100 197C94.5323 195.394 89.9243 198.539 87 203Z" style="fill:#887c56; stroke:none;"/><path d="M114 204L118 203L118 202L116 200L122 200C118.04 196.083 114.649 199.534 114 204Z" style="fill:#968250; stroke:none;"/><path d="M83 203L83 204L89 200L83 203Z" style="fill:#645737; stroke:none;"/><path d="M42 208C42.0135 211.194 41.5972 213.271 45 214L44 207C40.1725 204.622 44.2928 203.618 47 204L48 214L49 214L47 209C54.7353 195.286 31.675 206.701 42 208Z" style="fill:#7e8633; stroke:none;"/><path d="M115 203L115 204L122 204L122 202L115 203Z" style="fill:#6f5a25; stroke:none;"/><path d="M144 203L144 204L149 204L148 212L144 211L144 207L141 212L147 213C145.362 217.48 142.164 234.749 148 236L147 227L155 227L155 236L143 238L143 239L152 240L156 238L156 226L147 226C148.883 220.736 153 221.014 158 221L158 220C153.107 219.919 146.194 218.796 151 213C150.463 207.434 151.456 201.286 144 203Z" style="fill:#7d8137; stroke:none;"/><path d="M44 207L43 212L47 212L47 204C43.1702 202.675 38.8114 205.882 44 207Z" style="fill:#e3ec81; stroke:none;"/><path d="M82 205L82 206L89 207L90 203L82 205Z" style="fill:#e4e0d7; stroke:none;"/><path d="M91 207C95.1655 208.105 98.0716 208.199 100 204C95.8082 203.084 92.9421 202.773 91 207Z" style="fill:#ebead5; stroke:none;"/><path d="M124 205L129 204L124 205Z" style="fill:#958561; stroke:none;"/><path d="M64 228L65 228C69.3671 208.088 80.9933 219.93 94 222C93.9031 219.286 96.4625 216.224 99 218L102 209L83 204C73.8325 207.884 64.7371 217.832 64 228Z" style="fill:#864c41; stroke:none;"/><path d="M105 204L105 205L109 208L116 211L117 211L120 209L105 204Z" style="fill:#857a5c; stroke:none;"/><path d="M125 204L129 208L128 205L134 205L125 204Z" style="fill:#2e1c06; stroke:none;"/><path d="M128 205L129 208L136 206L135 213L136 213L143 204L128 205Z" style="fill:#5e6142; stroke:none;"/><path d="M144 204L144 211L148 212L149 204L144 204Z" style="fill:#deda79; stroke:none;"/><path d="M100 209C104.12 209.448 106.659 209.711 109 206C104.808 205.084 101.942 204.773 100 209Z" style="fill:#e4e9d5; stroke:none;"/><path d="M63 206L63 208L65 208L65 206L63 206Z" style="fill:#d7e09d; stroke:none;"/><path d="M131 206L135 211L136 206L131 206Z" style="fill:#90967c; stroke:none;"/><path d="M109 211L116 212L116 208C112.334 207.431 110.265 207.223 109 211Z" style="fill:#eaebdd; stroke:none;"/><path d="M108 208L104 210L104 211C106.45 210.88 109.095 210.905 108 208Z" style="fill:#727d6f; stroke:none;"/><path d="M129 208L134 215L128 213L132 220L128 225L140 219L145 213L145 212L139 215L136 215L129 208Z" style="fill:#48391a; stroke:none;"/><path d="M102.667 209.333l0.6660 0.3340l-0.6660 -0.3340z" style="fill:#7b8c7a; stroke:none;"/><path d="M117 209L117 211L127 213L117 209Z" style="fill:#231a00; stroke:none;"/><path d="M102 210L100 214L117 211L102 210Z" style="fill:#1a2213; stroke:none;"/><path d="M110.667 211.333l0.6660 0.3340l-0.6660 -0.3340z" style="fill:#a3a099; stroke:none;"/><path d="M117 211L116 227L109 229L108 232L108 233L129 226L130 220L128 222L127 222L127 219L126 219L126 223L118 225L118 218L129 213L129 212L124 212L118 216L122 211L121 211L117 211Z" style="fill:#796236; stroke:none;"/><path d="M118 211L118 213L121 213L121 211L118 211Z" style="fill:#c8c8a6; stroke:none;"/><path d="M45 212L53 220L54 216L45 212Z" style="fill:#464119; stroke:none;"/><path d="M97 220L107 223L105 228L116 227L117 215C107.733 213.922 102.767 210.431 97 220Z" style="fill:#e3e7d6; stroke:none;"/><path d="M106 212L106 213L109 213L106 212Z" style="fill:#848679; stroke:none;"/><path d="M122 212L118 216L124 212L122 212Z" style="fill:#91966e; stroke:none;"/><path d="M110 213L110 214L117 215L117 214L110 213Z" style="fill:#b6c1b1; stroke:none;"/><path d="M133 213L132 215L134 215L133 213Z" style="fill:#8b8062; stroke:none;"/><path d="M140 219L111 232L111 233L115 232L115 238L116 238C117.616 233.482 120.496 233.1 125 233L125 228L126 228L126 238L127 238C129.789 230.219 137.33 235.303 143 237L145 213L140 219Z" style="fill:#868f56; stroke:none;"/><path d="M145 213L143 238L144 238L147 213L145 213Z" style="fill:#d5d982; stroke:none;"/><path d="M69 219L82 219C77.7285 213.942 72.7167 212.903 69 219Z" style="fill:#d59387; stroke:none;"/><path d="M118 218L118 225L126 223L126 219L127 219L127 222L128 222L132 220C128.587 212.649 124.103 215.606 118 218Z" style="fill:#aeab68; stroke:none;"/><path d="M45 215L45 226L47 226L47 215L45 215Z" style="fill:#d4d383; stroke:none;"/><path d="M44 216L42 220L42 221L42 222L44 229L45 229L47 227L47 226L44 216Z" style="fill:#757849; stroke:none;"/><path d="M47 216L47 226L48 226L52 218L47 216Z" style="fill:#818c61; stroke:none;"/><path d="M97 216L93 221L97 224L102 223L102 222L97 221L97 216Z" style="fill:#381d16; stroke:none;"/><path d="M116 218L116 224L117 224L116 218Z" style="fill:#aaaf8f; stroke:none;"/><path d="M68 221L72 222L73 222L80 220L65 228L96 226L96 225L88 225L88 220L80 225L83 219L68 221Z" style="fill:#737357; stroke:none;"/><path d="M61 220L58 224L58 225C60.7572 224.195 61.8198 222.83 61 220Z" style="fill:#635339; stroke:none;"/><path d="M65 226C69.2368 225.532 70.6573 223.992 72 220L65 226Z" style="fill:#ebedd7; stroke:none;"/><path d="M72 225C76.2376 224.782 78.333 224.023 80 220C75.6062 220.099 73.1796 220.47 72 225Z" style="fill:#e7e7db; stroke:none;"/><path d="M80 225C84.0942 224.785 85.933 224.101 87 220C83.1564 220.418 81.6234 221.484 80 225Z" style="fill:#e1decd; stroke:none;"/><path d="M97 220L97 221L100 221L97 220Z" style="fill:#98a190; stroke:none;"/><path d="M89 221L88 225L97 222L89 221Z" style="fill:#ede4dd; stroke:none;"/><path d="M147 226L156 226L156 238L152 238C153.588 242.876 157.215 243.71 162 244L158 229L158 228L158 227L160 227L160 222C154.765 220.819 148.373 219.528 147 226Z" style="fill:#8c9c6b; stroke:none;"/><path d="M71 222L70 225L71 222Z" style="fill:#a6a593; stroke:none;"/><path d="M100 223L100 224L104 226L105 226L107 224L100 223Z" style="fill:#6a7062; stroke:none;"/><path d="M97 226L104 224L97 226Z" style="fill:#eeeee2; stroke:none;"/><path d="M49 235L50 235L60 226L62 233L61 225C55.0528 225.051 50.2133 229.18 49 235Z" style="fill:#86816b; stroke:none;"/><path d="M96 224L95 227L96 224Z" style="fill:#3e371b; stroke:none;"/><path d="M105 224C103.785 226.723 102.665 228.267 106 229L107 224L105 224Z" style="fill:#1d1d01; stroke:none;"/><path d="M27 226L25 239L33 237L33 226L27 226Z" style="fill:#9ba570; stroke:none;"/><path d="M50 235L49 235L48 230C34.0354 237.861 22.9717 263.928 20 279L51 279L48 266L49 266C51.8836 283.888 72.956 283.26 79 267L61 277L59.1964 253L60 226L50 235Z" style="fill:#e7e9e4; stroke:none;"/><path d="M97 226L97 227L103 229L97 226Z" style="fill:#6f715c; stroke:none;"/><path d="M103 226L104 227L103 226Z" style="fill:#878c85; stroke:none;"/><path d="M147 227L148 236L144 237L144 238L155 236L155 227L147 227Z" style="fill:#8b9563; stroke:none;"/><path d="M125 228L125 233C120.39 233.039 117.068 232.964 116 238L126 238L125 228Z" style="fill:#756f35; stroke:none;"/><path d="M60 233L60 264L61 264L61 239L65 240L65 239L61 238L61 234L77 230L60 233Z" style="fill:#5e605d; stroke:none;"/><path d="M82 229L82 233L83 233L82 229Z" style="fill:#5e430c; stroke:none;"/><path d="M93 229L93 238L97 235L94 236L93 229Z" style="fill:#5f4011; stroke:none;"/><path d="M104.667 229.333l0.6660 0.3340l-0.6660 -0.3340z" style="fill:#7d8160; stroke:none;"/><path d="M97 236L110 232L110 230C105.377 229.409 99.7994 232.304 97 236Z" style="fill:#252408; stroke:none;"/><path d="M48.6667 230.333l0.6666 0.3340l-0.6666 -0.3340z" style="fill:#574f44; stroke:none;"/><path d="M88 231L87 236L84 233L67 234L67 235L80 239L81 239L83 236L82 240L87 243L88 243L92 236L88 231Z" style="fill:#6a5f4b; stroke:none;"/><path d="M114 232C109.999 233.111 93.1489 233.635 94.929 240.787C95.5129 243.134 98.6757 244.979 100 247L108 248L114 232Z" style="fill:#deecd5; stroke:none;"/><path d="M104.667 233.333l0.6660 0.3340l-0.6660 -0.3340z" style="fill:#6a6d52; stroke:none;"/><path d="M128 242L134 241L136 235C129.712 231.102 125.671 235.509 128 242Z" style="fill:#7a6224; stroke:none;"/><path d="M42.3333 234.667l0.3334 0.6660l-0.3334 -0.6660z" style="fill:#929a8d; stroke:none;"/><path d="M134 241L128 242C122.912 233.647 107.067 238.21 108 248L100 247C98.9612 243.449 96.4695 243.248 93 243L93 236L92 236L89 243L89 244C93.6136 244.171 96.5948 244.872 99 249L90 249L90 250L99 252C103.773 246.933 107.263 251.549 113 252L109 244L113 244C116.184 238.963 120.6 239.329 126 240L126 243L121 244L124 252L132 252L128 244C133.54 243.243 136.409 245.439 137 251L138 251L135 237C139.868 237.929 142.477 240.292 144 245L145 245L150 240L149 248C159.747 239.745 131.958 229.393 134 241Z" style="fill:#2d2802; stroke:none;"/><path d="M62 235L65 240L61 239L64 274C71.7002 268.417 78.4577 246.318 80 237L72 240L72 239L78 237L62 235Z" style="fill:#e6ebe5; stroke:none;"/><path d="M67 235L67 236L71 236L67 235Z" style="fill:#beb49b; stroke:none;"/><path d="M81 236L68 272C82.1824 262.76 80.2418 251.19 83 236L81 236Z" style="fill:#232e28; stroke:none;"/><path d="M84 236L90 240L90 238L84 236Z" style="fill:#e8e8e0; stroke:none;"/><path d="M72 239L72 240L79 238L72 239Z" style="fill:#979998; stroke:none;"/><path d="M88 237L88 238L91 239L88 237Z" style="fill:#b8b6a7; stroke:none;"/><path d="M135 237L137 254C144.844 248.961 145.851 238.121 135 237Z" style="fill:#d8c3ae; stroke:none;"/><path d="M113 238L113 240L115 238L113 238Z" style="fill:#939273; stroke:none;"/><path d="M59 239L59 256L60 256L59 239Z" style="fill:#a3a5a0; stroke:none;"/><path d="M83 239C83.0642 241.993 82.9461 243.346 86 244L83 239Z" style="fill:#e7f2e4; stroke:none;"/><path d="M113 244L117 247L118 245L119 245L117 255C123.021 253.148 123.162 249.393 121 244L126 243L126 240C120.836 239.074 115.283 238.344 113 244Z" style="fill:#d9c1a5; stroke:none;"/><path d="M38 240L39 241L38 240Z" style="fill:#71746b; stroke:none;"/><path d="M65 240L65 241L70 243L65 240Z" style="fill:#949790; stroke:none;"/><path d="M82 240L84 245L82 240Z" style="fill:#bfc5b7; stroke:none;"/><path d="M93 240L95 243L93 240Z" style="fill:#544f49; stroke:none;"/><path d="M142 252C147.934 250.065 149.779 245.973 150 240C144.992 242.155 143.955 247.24 142 252Z" style="fill:#c8c09c; stroke:none;"/><path d="M86 242L79 259L80 264L81 264L82 260L82 279L84 279C84 271.238 83.1789 264.85 91 261L91 260C82.4805 260.24 84.1742 252.467 83 246L93 245L93 244L89 244L89 243L92 241L86 242Z" style="fill:#7c765e; stroke:none;"/><path d="M150 241L150 244L151 244L150 241Z" style="fill:#8c8b5d; stroke:none;"/><path d="M153 241L150 249L160 247L161 260L144 260L143 260L143 264L132 262L113 267L114 264L104 270L98 279L180 279L178.588 253.851L153 241Z" style="fill:#6d320a; stroke:none;"/><path d="M109.667 242.333l0.6660 0.3340l-0.6660 -0.3340z" style="fill:#636a41; stroke:none;"/><path d="M24 247L23 259L34 243L24 247Z" style="fill:#6c5126; stroke:none;"/><path d="M129 243L129 244L134 244L129 243Z" style="fill:#897d57; stroke:none;"/><path d="M83 246L85.1497 259.22L110 258C109.655 251.222 106.554 249.146 100 249L104 254L104 255L88 255L88 249L99 249C96.5214 242.355 88.6065 244.724 83 246Z" style="fill:#decca4; stroke:none;"/><path d="M109 244L112 255C120.053 252.118 115.501 245.069 109 244Z" style="fill:#d3c49d; stroke:none;"/><path d="M113 244L113 245C116.815 248.894 115.928 251.924 116 257C120.741 255.597 123.268 254.075 124 249L123 249L117 255L119 245L118 245L117 247L113 244Z" style="fill:#735a3b; stroke:none;"/><path d="M125 244L125 250L129 250L125 244Z" style="fill:#918261; stroke:none;"/><path d="M128.333 244.667l0.3340 0.6660l-0.3340 -0.6660z" style="fill:#9a8b6a; stroke:none;"/><path d="M129 244L131 255L130 252C124.534 252.266 114.415 255.686 111 260C116.56 259.512 127.945 259.857 132.539 256.85C139.836 252.075 136.524 244.281 129 244Z" style="fill:#dbc9a5; stroke:none;"/><path d="M143 245L139 253L142 254L142 255L129.973 260.401L114 262L113 267L132 262C132.608 266.379 139.479 263.615 143 264L143 260L144 260L144 262L145 262C148.268 257.582 154.988 259 160 259L159 256L156 258L153 254L153 255L155 257L148 258L149 255L143 254L142 252L145 245L143 245Z" style="fill:#987d38; stroke:none;"/><path d="M156 248L160 259L145 259L145 260L161 260L160 247L156 248Z" style="fill:#845231; stroke:none;"/><path d="M1 259L1 279L17.4078 277.85L25 259L25 248L1 259Z" style="fill:#632913; stroke:none;"/><path d="M81 248L80 260C83.3721 256.385 83.614 252.196 81 248Z" style="fill:#e0dfda; stroke:none;"/><path d="M101 248L101 249L105 249L101 248Z" style="fill:#666144; stroke:none;"/><path d="M148 248L146 252C150.162 256.299 152.319 253.293 156 250L148 248Z" style="fill:#907b66; stroke:none;"/><path d="M43 249L44 254L45 254L43 249Z" style="fill:#62655e; stroke:none;"/><path d="M88 249L88 255L99 254L92 255L88 249Z" style="fill:#5c442a; stroke:none;"/><path d="M136 249L138 255L136 249Z" style="fill:#6f5e42; stroke:none;"/><path d="M156 249L153 254L158 258L156 249Z" style="fill:#d0b194; stroke:none;"/><path d="M99.3333 250.667l0.3334 0.6660l-0.3334 -0.6660z" style="fill:#746e54; stroke:none;"/><path d="M143 254L148 250L143 254Z" style="fill:#351e00; stroke:none;"/><path d="M89 251L89 254L90 254L89 251Z" style="fill:#d2c0a8; stroke:none;"/><path d="M92 251L92 254L98 254L98 251L92 251Z" style="fill:#dedfcd; stroke:none;"/><path d="M127 251L127 252L131 255L132 252L127 251Z" style="fill:#8f7954; stroke:none;"/><path d="M30.3333 252.667l0.3334 0.6660l-0.3334 -0.6660z" style="fill:#aca499; stroke:none;"/><path d="M98.3333 252.667l0.3334 0.6660l-0.3334 -0.6660z" style="fill:#8b8a76; stroke:none;"/><path d="M99 252L102 255L99 252Z" style="fill:#1f1a00; stroke:none;"/><path d="M111 252L110 264L109 261L112 263L113 263L118 260L118 259L111 260L114 256L114 255L111 252Z" style="fill:#6b6649; stroke:none;"/><path d="M45 253L44 256L45 253Z" style="fill:#989b94; stroke:none;"/><path d="M101 253L104 255L101 253Z" style="fill:#897e5e; stroke:none;"/><path d="M135 253C128.34 264.571 110.677 255.941 105 272L116.224 262.405L138 256L135 253Z" style="fill:#291200; stroke:none;"/><path d="M138 254L138 255L142 255L138 254Z" style="fill:#2a2102; stroke:none;"/><path d="M145 253L145 255L148 255L148 253L145 253Z" style="fill:#d1bf8d; stroke:none;"/><path d="M92 254L92 255L97 255L92 254Z" style="fill:#73806f; stroke:none;"/><path d="M151 255L155 257L151 255Z" style="fill:#484c3b; stroke:none;"/><path d="M113 257L116 255L113 257Z" style="fill:#3b2404; stroke:none;"/><path d="M148 258L152 258C150.42 255.854 149.538 255.83 148 258Z" style="fill:#d6bda7; stroke:none;"/><path d="M45 256L46 262L47 262L45 256Z" style="fill:#565853; stroke:none;"/><path d="M91 256L91 257L96 257L91 256Z" style="fill:#878866; stroke:none;"/><path d="M106.667 258.333l0.6660 0.3340l-0.6660 -0.3340z" style="fill:#7f7458; stroke:none;"/><path d="M90 261L92 273L100 266L93 269L93 261L105 261L103 264L110 258L90 261Z" style="fill:#161200; stroke:none;"/><path d="M121 258L121 259L132 259L121 258Z" style="fill:#71624f; stroke:none;"/><path d="M61 259L61 264L62 264L61 259Z" style="fill:#989b94; stroke:none;"/><path d="M91 259L91 260L96 260L91 259Z" style="fill:#8c7d54; stroke:none;"/><path d="M0 260L0 279L1 279L0 260Z" style="fill:#dea59e; stroke:none;"/><path d="M82 260L82 264L78 266C81.6903 265.261 84.097 263.749 82 260Z" style="fill:#cdcfcc; stroke:none;"/><path d="M124 260L124 261L132 261L124 260Z" style="fill:#523a14; stroke:none;"/><path d="M47 261L47 266L48 266L47 261Z" style="fill:#959891; stroke:none;"/><path d="M93 261L93 269L98 266L100 268L101 268L105 261L93 261Z" style="fill:#7d6034; stroke:none;"/><path d="M109 261L111 264L112 261L109 261Z" style="fill:#eef0e2; stroke:none;"/><path d="M25.3333 262.667l0.3334 0.6660l-0.3334 -0.6660z" style="fill:#9d8f82; stroke:none;"/><path d="M84 279C94.695 279 101.438 276.991 107 267L89 275L90 262C82.194 263.668 84 272.704 84 279Z" style="fill:#e1ece6; stroke:none;"/><path d="M90 262L90 265L91 265L90 262Z" style="fill:#777a5f; stroke:none;"/><path d="M106 262L105 266L110 265L108 262L106 262Z" style="fill:#dee1d6; stroke:none;"/><path d="M81 263L82 264L81 263Z" style="fill:#000102; stroke:none;"/><path d="M61 264L62 273L63 273L61 264Z" style="fill:#4e504b; stroke:none;"/><path d="M103 264L101 266L101 267L109 267L109 266L105 264L103 264Z" style="fill:#989a8c; stroke:none;"/><path d="M74 268L79 267L77 272L81 266L74 268Z" style="fill:#97a29e; stroke:none;"/><path d="M48 266L48 269L49 269L48 266Z" style="fill:#555752; stroke:none;"/><path d="M81 266L80 269L81 266Z" style="fill:#434d4c; stroke:none;"/><path d="M82 266L78 279L82 279L82 266Z" style="fill:#eaebe6; stroke:none;"/><path d="M23.3333 267.667l0.3334 0.6660l-0.3334 -0.6660z" style="fill:#97938a; stroke:none;"/><path d="M48.6667 269.333l0.6666 0.3340l-0.6666 -0.3340z" style="fill:#949691; stroke:none;"/><path d="M91 269L89 275L91 269Z" style="fill:#858a84; stroke:none;"/><path d="M22.3333 270.667l0.3334 0.6660l-0.3334 -0.6660z" style="fill:#aca59d; stroke:none;"/><path d="M49 270L53 279L49 270Z" style="fill:#6e706b; stroke:none;"/><path d="M20 272L18 279L20 272Z" style="fill:#160000; stroke:none;"/><path d="M21.3333 272.667l0.3334 0.6660l-0.3334 -0.6660z" style="fill:#837c72; stroke:none;"/><path d="M64 276L68 272L64 276Z" style="fill:#737872; stroke:none;"/><path d="M72 279L78 279L78 272L72 279Z" style="fill:#2a2f29; stroke:none;"/><path d="M62 273L61 277L64 273L62 273Z" style="fill:#a3a5a0; stroke:none;"/><path d="M63.3333 274.667l0.3334 0.6660l-0.3334 -0.6660z" style="fill:#444641; stroke:none;"/><path d="M71.3333 277.667l0.3334 0.6660l-0.3334 -0.6660z" style="fill:#6d746c; stroke:none;"/><path d="M97.3333 277.667l0.3334 0.6660l-0.3334 -0.6660z" style="fill:#92988a; stroke:none;"/></svg>